<svg id="svg" version="1.1" xmlns="http://www.w3.org/2000/svg" xmlns:xlink="http://www.w3.org/1999/xlink" width="400" height="400" viewBox="0, 0, 400,400"><g id="svgg"><path id="path0" d="M257.600 261.999 C 257.600 278.800,257.675 281.200,258.200 281.200 C 258.530 281.200,258.800 281.470,258.800 281.800 C 258.800 282.331,266.097 282.399,322.100 282.393 L 385.400 282.386 386.304 281.433 L 387.208 280.479 387.104 261.739 L 387.000 243.000 322.300 242.899 L 257.600 242.798 257.600 261.999 M318.200 251.600 C 318.336 251.820,318.855 252.000,319.354 252.000 C 320.859 252.000,322.800 254.592,322.800 256.600 C 322.800 259.456,320.240 260.230,318.361 257.943 C 317.709 257.151,317.137 256.792,316.828 256.983 C 315.927 257.540,316.795 259.269,319.189 261.686 C 325.009 267.560,323.492 275.465,316.600 275.170 C 311.755 274.962,309.040 266.800,313.816 266.800 C 315.414 266.800,315.611 266.906,315.854 267.900 C 316.321 269.807,317.600 270.016,317.600 268.185 C 317.600 267.530,316.721 266.316,314.880 264.426 C 310.044 259.464,310.052 253.954,314.898 251.835 C 316.460 251.152,317.861 251.052,318.200 251.600 M297.763 251.986 C 299.001 252.457,300.000 254.674,300.000 256.951 C 300.000 257.861,300.197 259.234,300.438 260.003 C 300.680 260.771,301.025 262.660,301.206 264.200 C 301.387 265.740,301.767 268.406,302.050 270.124 C 302.725 274.207,302.077 275.308,299.396 274.635 C 298.015 274.288,297.200 273.300,297.200 271.971 C 297.200 270.899,297.081 270.800,295.800 270.800 C 294.687 270.800,294.400 270.957,294.400 271.567 C 294.400 273.493,292.598 274.880,290.593 274.497 C 289.348 274.259,289.143 273.579,289.630 271.299 C 289.854 270.255,290.186 268.050,290.369 266.400 C 290.552 264.750,290.903 262.893,291.151 262.274 C 291.398 261.655,291.601 260.305,291.602 259.274 C 291.607 253.326,293.961 250.541,297.763 251.986 M336.174 251.990 L 337.200 252.380 337.200 262.997 L 337.200 273.613 335.898 274.234 C 334.900 274.710,334.340 274.757,333.498 274.437 L 332.400 274.020 332.400 263.230 C 332.400 250.873,332.495 250.591,336.174 251.990 M355.196 251.957 C 356.263 252.254,356.456 252.824,357.240 258.000 C 357.457 259.430,357.813 261.417,358.032 262.416 C 358.422 264.193,359.031 268.319,359.461 272.095 C 359.841 275.439,355.386 275.800,354.568 272.492 C 354.087 270.544,351.600 269.943,351.600 271.775 C 351.600 272.339,351.441 272.800,351.247 272.800 C 351.052 272.800,350.806 273.133,350.700 273.539 C 350.464 274.443,348.132 275.007,347.343 274.352 C 346.605 273.740,346.639 269.758,347.400 267.600 C 347.730 266.665,348.000 265.010,348.000 263.923 C 348.000 262.837,348.177 261.616,348.394 261.212 C 348.610 260.807,348.905 259.154,349.049 257.538 C 349.512 252.344,351.172 250.837,355.196 251.957 M295.659 260.636 C 295.626 261.536,295.332 263.156,295.004 264.236 C 294.217 266.831,294.210 266.800,295.651 266.800 L 296.902 266.800 296.589 265.100 C 296.416 264.165,296.150 262.410,295.996 261.200 C 295.739 259.170,295.713 259.126,295.659 260.636 M352.480 262.129 C 351.620 264.508,351.836 266.879,352.900 266.728 C 353.745 266.608,353.792 266.440,353.662 264.000 C 353.497 260.900,353.133 260.324,352.480 262.129 M279.603 270.603 C 280.205 271.329,279.869 273.982,279.114 274.462 C 277.351 275.580,274.954 273.929,275.364 271.878 C 275.742 269.991,278.425 269.184,279.603 270.603 " stroke="none" fill="#ec5d65" fill-rule="evenodd"></path><path id="path1" d="M113.345 139.800 C 113.149 140.309,111.750 140.400,104.157 140.400 C 96.462 140.400,95.200 140.485,95.200 141.000 C 95.200 141.501,94.378 141.600,90.200 141.600 C 87.133 141.600,85.200 141.755,85.200 142.000 C 85.200 142.239,83.662 142.400,81.387 142.400 C 78.368 142.400,77.527 142.525,77.345 143.000 C 77.165 143.467,76.372 143.600,73.757 143.600 C 71.040 143.600,70.400 143.714,70.400 144.200 C 70.400 144.676,69.822 144.800,67.600 144.800 C 65.378 144.800,64.800 144.924,64.800 145.400 C 64.800 145.876,64.222 146.000,62.000 146.000 C 59.778 146.000,59.200 146.124,59.200 146.600 C 59.200 147.061,58.689 147.200,57.000 147.200 C 55.790 147.200,54.800 147.380,54.800 147.600 C 54.800 147.820,54.024 148.000,53.076 148.000 C 52.129 148.000,51.004 148.264,50.576 148.587 C 50.149 148.910,49.125 149.180,48.300 149.187 C 47.239 149.196,46.800 149.376,46.800 149.800 C 46.800 150.234,46.354 150.400,45.187 150.400 C 44.123 150.400,43.497 150.604,43.345 151.000 C 43.183 151.421,42.527 151.600,41.145 151.600 C 39.763 151.600,39.106 151.779,38.945 152.200 C 38.818 152.530,38.284 152.800,37.757 152.800 C 37.173 152.800,36.800 153.034,36.800 153.400 C 36.800 153.844,36.333 154.000,35.000 154.000 C 34.010 154.000,33.200 154.180,33.200 154.400 C 33.200 154.620,32.480 154.800,31.600 154.800 C 30.444 154.800,30.000 154.967,30.000 155.400 C 30.000 155.800,29.600 156.000,28.800 156.000 C 28.000 156.000,27.600 156.200,27.600 156.600 C 27.600 157.033,27.156 157.200,26.000 157.200 C 24.844 157.200,24.400 157.367,24.400 157.800 C 24.400 158.200,24.000 158.400,23.200 158.400 C 22.400 158.400,22.000 158.600,22.000 159.000 C 22.000 159.400,21.600 159.600,20.800 159.600 C 20.140 159.600,19.600 159.780,19.600 160.000 C 19.600 160.220,19.150 160.400,18.600 160.400 C 17.978 160.400,17.600 160.627,17.600 161.000 C 17.600 161.400,17.200 161.600,16.400 161.600 C 15.600 161.600,15.200 161.800,15.200 162.200 C 15.200 162.600,14.800 162.800,14.000 162.800 C 13.200 162.800,12.800 163.000,12.800 163.400 C 12.800 163.773,12.422 164.000,11.800 164.000 C 11.178 164.000,10.800 164.227,10.800 164.600 C 10.800 165.000,10.400 165.200,9.600 165.200 C 8.800 165.200,8.400 165.400,8.400 165.800 C 8.400 166.130,8.207 166.400,7.971 166.400 C 7.418 166.400,6.400 167.418,6.400 167.971 C 6.400 168.207,6.130 168.400,5.800 168.400 C 5.470 168.400,5.200 168.670,5.200 169.000 C 5.200 169.330,4.930 169.600,4.600 169.600 C 4.095 169.600,4.000 170.489,4.000 175.200 L 4.000 180.800 6.800 180.800 C 9.022 180.800,9.600 180.676,9.600 180.200 C 9.600 179.834,9.973 179.600,10.557 179.600 C 11.084 179.600,11.618 179.330,11.745 179.000 C 11.871 178.670,12.431 178.400,12.987 178.400 C 13.544 178.400,14.000 178.220,14.000 178.000 C 14.000 177.780,14.347 177.600,14.771 177.600 C 15.196 177.600,15.813 177.330,16.143 177.000 C 16.473 176.670,17.116 176.400,17.571 176.400 C 18.041 176.400,18.400 176.140,18.400 175.800 C 18.400 175.400,18.800 175.200,19.600 175.200 C 20.400 175.200,20.800 175.000,20.800 174.600 C 20.800 174.225,21.179 174.000,21.813 174.000 C 22.369 174.000,22.929 173.730,23.055 173.400 C 23.182 173.070,23.716 172.800,24.243 172.800 C 24.769 172.800,25.200 172.620,25.200 172.400 C 25.200 172.180,25.656 172.000,26.213 172.000 C 26.769 172.000,27.329 171.730,27.455 171.400 C 27.582 171.070,28.122 170.800,28.655 170.800 C 29.189 170.800,29.729 170.530,29.855 170.200 C 30.005 169.809,30.628 169.600,31.643 169.600 C 32.760 169.600,33.200 169.431,33.200 169.000 C 33.200 168.600,33.600 168.400,34.400 168.400 C 35.200 168.400,35.600 168.200,35.600 167.800 C 35.600 167.367,36.044 167.200,37.200 167.200 C 38.356 167.200,38.800 167.033,38.800 166.600 C 38.800 166.200,39.200 166.000,40.000 166.000 C 40.660 166.000,41.200 165.820,41.200 165.600 C 41.200 165.380,41.470 165.200,41.800 165.200 C 42.261 165.200,42.400 165.711,42.400 167.400 C 42.400 169.089,42.261 169.600,41.800 169.600 C 41.339 169.600,41.200 170.111,41.200 171.800 C 41.200 173.489,41.061 174.000,40.600 174.000 C 40.133 174.000,40.000 174.533,40.000 176.400 C 40.000 178.267,39.867 178.800,39.400 178.800 C 38.946 178.800,38.800 179.292,38.800 180.829 C 38.800 182.098,38.576 183.082,38.200 183.457 C 37.847 183.810,37.600 184.787,37.600 185.829 C 37.600 186.803,37.420 187.600,37.200 187.600 C 36.980 187.600,36.800 188.590,36.800 189.800 C 36.800 191.489,36.661 192.000,36.200 192.000 C 35.733 192.000,35.600 192.533,35.600 194.400 C 35.600 196.267,35.467 196.800,35.000 196.800 C 34.539 196.800,34.400 197.311,34.400 199.000 C 34.400 200.689,34.261 201.200,33.800 201.200 C 33.341 201.200,33.200 201.706,33.200 203.357 C 33.200 204.906,33.031 205.579,32.600 205.745 C 32.153 205.916,32.000 206.630,32.000 208.554 C 32.000 210.147,31.824 211.192,31.538 211.287 C 31.262 211.379,31.001 212.754,30.887 214.721 C 30.783 216.524,30.540 218.000,30.349 218.000 C 30.157 218.000,30.000 220.790,30.000 224.200 C 30.000 228.067,30.151 230.400,30.400 230.400 C 30.620 230.400,30.800 230.747,30.800 231.171 C 30.800 231.596,31.070 232.213,31.400 232.543 C 31.730 232.873,32.000 233.431,32.000 233.784 C 32.000 234.137,32.270 234.529,32.600 234.655 C 32.930 234.782,33.200 235.136,33.200 235.443 C 33.200 235.749,33.470 236.000,33.800 236.000 C 34.130 236.000,34.400 236.270,34.400 236.600 C 34.400 237.089,35.067 237.200,38.000 237.200 C 41.875 237.200,43.200 236.589,43.200 234.800 C 43.200 234.356,43.467 234.000,43.800 234.000 C 44.130 234.000,44.400 233.730,44.400 233.400 C 44.400 233.070,44.670 232.800,45.000 232.800 C 45.400 232.800,45.600 232.400,45.600 231.600 C 45.600 230.800,45.800 230.400,46.200 230.400 C 46.595 230.400,46.800 230.005,46.800 229.243 C 46.800 228.583,47.058 227.987,47.400 227.855 C 47.872 227.674,48.000 226.855,48.000 224.013 L 48.000 220.400 46.200 220.400 C 44.867 220.400,44.400 220.556,44.400 221.000 C 44.400 221.330,44.130 221.600,43.800 221.600 C 43.307 221.600,43.200 220.889,43.200 217.600 C 43.200 214.311,43.307 213.600,43.800 213.600 C 44.259 213.600,44.400 213.094,44.400 211.443 C 44.400 209.894,44.569 209.221,45.000 209.055 C 45.433 208.889,45.600 208.210,45.600 206.613 C 45.600 204.913,45.739 204.400,46.200 204.400 C 46.633 204.400,46.800 203.956,46.800 202.800 C 46.800 201.644,46.967 201.200,47.400 201.200 C 47.844 201.200,48.000 200.733,48.000 199.400 C 48.000 198.067,48.156 197.600,48.600 197.600 C 49.033 197.600,49.200 197.156,49.200 196.000 C 49.200 195.120,49.380 194.400,49.600 194.400 C 49.820 194.400,50.000 193.860,50.000 193.200 C 50.000 192.400,50.200 192.000,50.600 192.000 C 51.031 192.000,51.200 191.560,51.200 190.443 C 51.200 189.428,51.409 188.805,51.800 188.655 C 52.196 188.503,52.400 187.877,52.400 186.813 C 52.400 185.646,52.566 185.200,53.000 185.200 C 53.421 185.200,53.600 184.775,53.600 183.771 C 53.600 182.986,53.870 182.073,54.200 181.743 C 54.530 181.413,54.800 180.526,54.800 179.771 C 54.800 179.017,54.980 178.400,55.200 178.400 C 55.420 178.400,55.600 177.410,55.600 176.200 C 55.600 174.511,55.739 174.000,56.200 174.000 C 56.633 174.000,56.800 173.556,56.800 172.400 C 56.800 171.244,56.967 170.800,57.400 170.800 C 57.893 170.800,58.000 170.089,58.000 166.800 C 58.000 163.511,57.893 162.800,57.400 162.800 C 57.070 162.800,56.800 162.530,56.800 162.200 C 56.800 161.870,56.607 161.600,56.371 161.600 C 56.136 161.600,55.673 161.330,55.343 161.000 C 54.810 160.467,54.990 160.400,56.971 160.400 C 58.197 160.400,59.200 160.220,59.200 160.000 C 59.200 159.780,59.836 159.600,60.613 159.600 C 61.499 159.600,62.111 159.377,62.255 159.000 C 62.421 158.569,63.096 158.400,64.655 158.400 C 66.215 158.400,66.890 158.231,67.055 157.800 C 67.221 157.369,67.894 157.200,69.443 157.200 C 71.094 157.200,71.600 157.059,71.600 156.600 C 71.600 156.124,72.178 156.000,74.400 156.000 C 76.622 156.000,77.200 155.876,77.200 155.400 C 77.200 154.914,77.844 154.800,80.600 154.800 C 82.600 154.800,84.000 154.635,84.000 154.400 C 84.000 154.167,85.338 154.000,87.213 154.000 C 89.699 154.000,90.477 153.864,90.655 153.400 C 90.842 152.913,91.785 152.800,95.655 152.800 C 99.526 152.800,100.469 152.687,100.655 152.200 C 101.007 151.285,128.000 151.295,128.000 152.210 C 128.000 152.736,128.850 152.805,134.100 152.710 L 140.200 152.600 140.318 149.900 C 140.416 147.680,140.327 147.200,139.818 147.200 C 139.398 147.200,139.200 146.816,139.200 146.000 C 139.200 145.200,139.000 144.800,138.600 144.800 C 138.242 144.800,138.000 144.432,138.000 143.889 C 138.000 142.815,136.723 141.600,135.595 141.600 C 135.155 141.600,134.800 141.332,134.800 141.000 C 134.800 140.494,133.889 140.400,129.000 140.400 C 124.111 140.400,123.200 140.306,123.200 139.800 C 123.200 139.300,122.399 139.200,118.387 139.200 C 114.479 139.200,113.532 139.313,113.345 139.800 M335.200 152.186 C 335.200 152.602,334.813 152.800,334.000 152.800 C 333.200 152.800,332.800 153.000,332.800 153.400 C 332.800 153.773,332.422 154.000,331.800 154.000 C 331.250 154.000,330.800 154.180,330.800 154.400 C 330.800 154.620,330.530 154.800,330.200 154.800 C 329.870 154.800,329.600 155.070,329.600 155.400 C 329.600 155.730,329.330 156.000,329.000 156.000 C 328.525 156.000,328.400 156.573,328.400 158.757 C 328.400 160.839,328.253 161.571,327.800 161.745 C 327.367 161.911,327.200 162.590,327.200 164.187 L 327.200 166.400 321.600 166.400 L 316.000 166.400 316.000 168.000 C 316.000 169.156,315.833 169.600,315.400 169.600 C 315.025 169.600,314.800 169.979,314.800 170.613 C 314.800 171.169,315.070 171.729,315.400 171.855 C 315.791 172.005,316.000 172.628,316.000 173.643 C 316.000 174.760,316.169 175.200,316.600 175.200 C 316.930 175.200,317.200 175.470,317.200 175.800 C 317.200 176.130,317.470 176.400,317.800 176.400 C 318.130 176.400,318.400 176.670,318.400 177.000 C 318.400 177.373,318.778 177.600,319.400 177.600 C 319.950 177.600,320.400 177.780,320.400 178.000 C 320.400 178.220,321.525 178.421,322.900 178.446 C 324.275 178.472,325.085 178.575,324.700 178.676 C 324.183 178.811,324.000 179.270,324.000 180.429 C 324.000 181.559,323.831 182.000,323.400 182.000 C 322.939 182.000,322.800 182.511,322.800 184.200 C 322.800 185.889,322.661 186.400,322.200 186.400 C 321.758 186.400,321.600 186.862,321.600 188.157 C 321.600 189.350,321.407 189.988,321.000 190.145 C 320.623 190.289,320.400 190.901,320.400 191.787 C 320.400 192.564,320.220 193.200,320.000 193.200 C 319.780 193.200,319.600 194.010,319.600 195.000 C 319.600 196.333,319.444 196.800,319.000 196.800 C 318.539 196.800,318.400 197.311,318.400 199.000 C 318.400 200.689,318.261 201.200,317.800 201.200 C 317.367 201.200,317.200 201.644,317.200 202.800 C 317.200 203.956,317.033 204.400,316.600 204.400 C 316.158 204.400,316.000 204.862,316.000 206.157 C 316.000 207.350,315.807 207.988,315.400 208.145 C 314.977 208.307,314.800 208.968,314.800 210.387 C 314.800 211.494,314.620 212.400,314.400 212.400 C 314.171 212.400,314.000 213.600,314.000 215.200 C 314.000 217.422,313.876 218.000,313.400 218.000 C 312.895 218.000,312.800 218.889,312.800 223.600 C 312.800 228.311,312.895 229.200,313.400 229.200 C 313.800 229.200,314.000 229.600,314.000 230.400 C 314.000 231.060,314.180 231.600,314.400 231.600 C 314.620 231.600,314.800 231.966,314.800 232.413 C 314.800 232.859,315.070 233.329,315.400 233.455 C 315.730 233.582,316.000 233.936,316.000 234.243 C 316.000 234.549,316.270 234.800,316.600 234.800 C 316.930 234.800,317.200 235.070,317.200 235.400 C 317.200 235.800,317.600 236.000,318.400 236.000 C 319.200 236.000,319.600 236.200,319.600 236.600 C 319.600 237.033,320.044 237.200,321.200 237.200 C 322.356 237.200,322.800 237.367,322.800 237.800 C 322.800 238.272,323.357 238.400,325.413 238.400 C 327.366 238.400,328.083 238.249,328.255 237.800 C 328.387 237.458,328.983 237.200,329.643 237.200 C 330.405 237.200,330.800 236.995,330.800 236.600 C 330.800 236.227,331.178 236.000,331.800 236.000 C 332.422 236.000,332.800 235.773,332.800 235.400 C 332.800 235.070,333.070 234.800,333.400 234.800 C 333.730 234.800,334.000 234.620,334.000 234.400 C 334.000 234.180,334.270 234.000,334.600 234.000 C 334.930 234.000,335.200 233.730,335.200 233.400 C 335.200 233.070,335.470 232.800,335.800 232.800 C 336.130 232.800,336.400 232.611,336.400 232.381 C 336.400 232.150,336.850 231.545,337.400 231.035 C 337.979 230.498,338.400 229.665,338.400 229.054 C 338.400 228.474,338.578 228.000,338.795 228.000 C 339.577 228.000,340.800 226.604,340.800 225.711 C 340.800 225.168,341.042 224.800,341.400 224.800 C 341.800 224.800,342.000 224.400,342.000 223.600 C 342.000 222.800,342.200 222.400,342.600 222.400 C 342.968 222.400,343.200 222.026,343.200 221.433 C 343.200 220.902,343.422 220.393,343.693 220.302 C 344.291 220.103,345.200 221.740,345.200 223.017 C 345.200 223.526,345.470 224.213,345.800 224.543 C 346.130 224.873,346.400 225.336,346.400 225.571 C 346.400 225.807,346.670 226.000,347.000 226.000 C 347.373 226.000,347.600 226.378,347.600 227.000 C 347.600 227.622,347.827 228.000,348.200 228.000 C 348.530 228.000,348.800 228.270,348.800 228.600 C 348.800 228.930,349.070 229.200,349.400 229.200 C 349.730 229.200,350.000 229.470,350.000 229.800 C 350.000 230.130,350.270 230.400,350.600 230.400 C 350.930 230.400,351.200 230.670,351.200 231.000 C 351.200 231.373,351.578 231.600,352.200 231.600 C 352.822 231.600,353.200 231.827,353.200 232.200 C 353.200 232.600,353.600 232.800,354.400 232.800 C 355.200 232.800,355.600 233.000,355.600 233.400 C 355.600 233.769,355.975 234.000,356.576 234.000 C 357.113 234.000,357.664 234.180,357.800 234.400 C 357.949 234.640,360.671 234.800,364.624 234.800 C 368.741 234.800,371.200 234.650,371.200 234.400 C 371.200 234.180,371.926 234.000,372.813 234.000 C 373.877 234.000,374.503 233.796,374.655 233.400 C 374.782 233.070,375.316 232.800,375.843 232.800 C 376.427 232.800,376.800 232.566,376.800 232.200 C 376.800 231.825,377.179 231.600,377.813 231.600 C 378.369 231.600,378.929 231.330,379.055 231.000 C 379.182 230.670,379.536 230.400,379.843 230.400 C 380.149 230.400,380.400 230.130,380.400 229.800 C 380.400 229.470,380.670 229.200,381.000 229.200 C 381.330 229.200,381.600 229.007,381.600 228.771 C 381.600 228.536,381.857 228.086,382.171 227.771 C 382.486 227.457,382.936 227.200,383.171 227.200 C 383.407 227.200,383.600 226.930,383.600 226.600 C 383.600 226.270,383.870 226.000,384.200 226.000 C 384.530 226.000,384.800 225.730,384.800 225.400 C 384.800 225.070,385.070 224.800,385.400 224.800 C 385.831 224.800,386.000 224.360,386.000 223.243 C 386.000 222.228,386.209 221.605,386.600 221.455 C 387.223 221.216,387.394 219.365,386.948 217.700 C 386.442 215.814,381.600 217.878,381.600 219.980 C 381.600 220.211,381.330 220.400,381.000 220.400 C 380.670 220.400,380.400 220.670,380.400 221.000 C 380.400 221.330,380.196 221.600,379.946 221.600 C 379.696 221.600,379.075 222.050,378.565 222.600 C 378.055 223.150,377.450 223.600,377.219 223.600 C 376.989 223.600,376.800 223.870,376.800 224.200 C 376.800 224.573,376.422 224.800,375.800 224.800 C 375.178 224.800,374.800 225.027,374.800 225.400 C 374.800 225.800,374.400 226.000,373.600 226.000 C 372.800 226.000,372.400 226.200,372.400 226.600 C 372.400 227.033,371.956 227.200,370.800 227.200 C 369.920 227.200,369.200 227.380,369.200 227.600 C 369.200 227.822,368.133 228.000,366.800 228.000 C 365.467 228.000,364.400 227.822,364.400 227.600 C 364.400 227.380,364.130 227.200,363.800 227.200 C 363.470 227.200,363.200 227.011,363.200 226.781 C 363.200 226.550,362.750 225.945,362.200 225.435 C 361.650 224.925,361.200 224.304,361.200 224.054 C 361.200 223.804,360.930 223.600,360.600 223.600 C 360.107 223.600,360.000 222.889,360.000 219.600 L 360.000 215.600 362.800 215.600 C 364.400 215.600,365.600 215.429,365.600 215.200 C 365.600 214.980,366.397 214.800,367.371 214.800 C 368.413 214.800,369.390 214.553,369.743 214.200 C 370.073 213.870,370.806 213.600,371.371 213.600 C 372.019 213.600,372.400 213.378,372.400 213.000 C 372.400 212.625,372.779 212.400,373.413 212.400 C 373.969 212.400,374.529 212.130,374.655 211.800 C 374.782 211.470,375.316 211.200,375.843 211.200 C 376.427 211.200,376.800 210.966,376.800 210.600 C 376.800 210.270,377.070 210.000,377.400 210.000 C 377.730 210.000,378.000 209.840,378.000 209.643 C 378.000 209.447,378.410 209.184,378.912 209.058 C 379.997 208.785,382.400 206.724,382.400 206.064 C 382.400 205.809,382.670 205.600,383.000 205.600 C 383.400 205.600,383.600 205.200,383.600 204.400 C 383.600 203.740,383.778 203.200,383.995 203.200 C 384.990 203.200,386.000 201.766,386.000 200.354 C 386.000 199.418,386.217 198.802,386.600 198.655 C 387.042 198.486,387.200 197.787,387.200 196.000 C 387.200 194.213,387.042 193.514,386.600 193.345 C 386.209 193.195,386.000 192.572,386.000 191.557 C 386.000 190.440,385.831 190.000,385.400 190.000 C 385.025 190.000,384.800 189.621,384.800 188.987 C 384.800 188.431,384.530 187.871,384.200 187.745 C 383.870 187.618,383.600 187.264,383.600 186.957 C 383.600 186.651,383.330 186.400,383.000 186.400 C 382.670 186.400,382.400 186.207,382.400 185.971 C 382.400 185.418,381.382 184.400,380.829 184.400 C 380.593 184.400,380.400 184.130,380.400 183.800 C 380.400 183.470,380.130 183.200,379.800 183.200 C 379.470 183.200,379.200 182.930,379.200 182.600 C 379.200 182.200,378.800 182.000,378.000 182.000 C 377.200 182.000,376.800 181.800,376.800 181.400 C 376.800 181.034,376.427 180.800,375.843 180.800 C 375.316 180.800,374.782 180.530,374.655 180.200 C 374.466 179.708,373.455 179.600,369.013 179.600 C 364.468 179.600,363.600 179.696,363.600 180.200 C 363.600 180.600,363.200 180.800,362.400 180.800 C 361.600 180.800,361.200 181.000,361.200 181.400 C 361.200 181.775,360.821 182.000,360.187 182.000 C 359.631 182.000,359.071 182.270,358.945 182.600 C 358.818 182.930,358.464 183.200,358.157 183.200 C 357.851 183.200,357.600 183.393,357.600 183.629 C 357.600 184.182,356.582 185.200,356.029 185.200 C 355.793 185.200,355.600 185.470,355.600 185.800 C 355.600 186.130,355.330 186.400,355.000 186.400 C 354.670 186.400,354.400 186.670,354.400 187.000 C 354.400 187.330,354.130 187.600,353.800 187.600 C 353.470 187.600,353.200 187.870,353.200 188.200 C 353.200 188.530,352.930 188.800,352.600 188.800 C 352.262 188.800,352.000 189.158,352.000 189.619 C 352.000 190.070,351.550 190.855,351.000 191.365 C 350.421 191.902,350.000 192.735,350.000 193.346 C 350.000 194.016,349.782 194.400,349.400 194.400 C 349.000 194.400,348.800 194.800,348.800 195.600 C 348.800 196.400,348.600 196.800,348.200 196.800 C 347.834 196.800,347.600 197.173,347.600 197.757 C 347.600 198.284,347.330 198.818,347.000 198.945 C 346.576 199.107,346.400 199.769,346.400 201.200 C 346.400 202.631,346.224 203.293,345.800 203.455 C 345.369 203.621,345.200 204.294,345.200 205.843 C 345.200 207.029,345.020 208.000,344.800 208.000 C 344.580 208.000,344.400 208.990,344.400 210.200 C 344.400 212.378,344.388 212.400,343.200 212.400 C 342.400 212.400,342.000 212.600,342.000 213.000 C 342.000 213.330,341.730 213.600,341.400 213.600 C 341.034 213.600,340.800 213.973,340.800 214.557 C 340.800 215.084,340.549 215.611,340.242 215.729 C 339.934 215.847,339.360 216.676,338.965 217.572 C 338.569 218.467,338.101 219.200,337.923 219.200 C 337.745 219.200,337.600 219.470,337.600 219.800 C 337.600 220.130,337.330 220.400,337.000 220.400 C 336.670 220.400,336.400 220.670,336.400 221.000 C 336.400 221.330,336.225 221.600,336.011 221.600 C 335.503 221.600,332.000 225.103,332.000 225.611 C 332.000 225.825,331.730 226.000,331.400 226.000 C 331.070 226.000,330.800 226.270,330.800 226.600 C 330.800 226.930,330.545 227.200,330.233 227.200 C 329.922 227.200,329.607 227.335,329.533 227.500 C 329.312 227.997,326.790 229.200,325.968 229.200 C 325.304 229.200,325.200 228.902,325.200 227.000 C 325.200 225.790,325.380 224.800,325.600 224.800 C 325.820 224.800,326.000 223.810,326.000 222.600 C 326.000 220.911,326.139 220.400,326.600 220.400 C 327.067 220.400,327.200 219.867,327.200 218.000 C 327.200 216.133,327.333 215.600,327.800 215.600 C 328.233 215.600,328.400 215.156,328.400 214.000 C 328.400 212.844,328.567 212.400,329.000 212.400 C 329.444 212.400,329.600 211.933,329.600 210.600 C 329.600 209.267,329.756 208.800,330.200 208.800 C 330.661 208.800,330.800 208.289,330.800 206.600 C 330.800 204.911,330.939 204.400,331.400 204.400 C 331.833 204.400,332.000 203.956,332.000 202.800 C 332.000 201.920,332.180 201.200,332.400 201.200 C 332.620 201.200,332.800 200.390,332.800 199.400 C 332.800 198.067,332.956 197.600,333.400 197.600 C 333.833 197.600,334.000 197.156,334.000 196.000 C 334.000 194.844,334.167 194.400,334.600 194.400 C 335.044 194.400,335.200 193.933,335.200 192.600 C 335.200 191.267,335.356 190.800,335.800 190.800 C 336.231 190.800,336.400 190.360,336.400 189.243 C 336.400 188.228,336.609 187.605,337.000 187.455 C 337.423 187.293,337.600 186.632,337.600 185.213 C 337.600 184.106,337.780 183.200,338.000 183.200 C 338.220 183.200,338.400 182.390,338.400 181.400 C 338.400 180.067,338.556 179.600,339.000 179.600 C 339.373 179.600,339.600 179.222,339.600 178.600 C 339.600 177.699,339.759 177.600,341.213 177.600 C 342.277 177.600,342.903 177.396,343.055 177.000 C 343.233 176.537,344.007 176.400,346.455 176.400 C 348.904 176.400,349.677 176.263,349.855 175.800 C 350.033 175.337,350.805 175.200,353.243 175.200 C 355.783 175.200,356.400 175.083,356.400 174.600 C 356.400 174.114,357.044 174.000,359.800 174.000 C 362.556 174.000,363.200 173.886,363.200 173.400 C 363.200 172.914,363.844 172.800,366.600 172.800 C 368.600 172.800,370.000 172.635,370.000 172.400 C 370.000 172.161,371.538 172.000,373.813 172.000 C 376.832 172.000,377.673 171.875,377.855 171.400 C 378.043 170.911,379.005 170.800,383.043 170.800 C 387.133 170.800,388.000 170.697,388.000 170.213 C 388.000 169.739,388.863 169.605,392.500 169.513 L 397.000 169.400 397.124 167.900 C 397.219 166.755,397.101 166.400,396.624 166.400 C 396.197 166.400,396.000 166.021,396.000 165.200 C 396.000 164.400,395.800 164.000,395.400 164.000 C 395.070 164.000,394.800 163.820,394.800 163.600 C 394.800 161.620,375.684 160.272,374.945 162.200 C 374.757 162.689,373.793 162.800,369.745 162.800 C 365.696 162.800,364.732 162.911,364.545 163.400 C 364.357 163.889,363.395 164.000,359.357 164.000 C 355.217 164.000,354.400 164.099,354.400 164.600 C 354.400 165.105,353.511 165.200,348.800 165.200 L 343.200 165.200 343.200 161.243 C 343.200 158.094,343.323 157.239,343.800 157.055 C 344.608 156.745,344.631 154.000,343.827 154.000 C 343.498 154.000,343.199 153.530,343.127 152.900 L 343.000 151.800 339.100 151.686 C 335.809 151.589,335.200 151.667,335.200 152.186 M118.800 165.800 C 118.800 166.130,118.530 166.400,118.200 166.400 C 117.688 166.400,117.600 167.513,117.600 174.013 C 117.600 180.410,117.696 181.662,118.200 181.855 C 118.530 181.982,118.800 182.476,118.800 182.954 C 118.800 183.812,120.039 185.200,120.805 185.200 C 121.022 185.200,121.200 185.470,121.200 185.800 C 121.200 186.130,121.470 186.400,121.800 186.400 C 122.130 186.400,122.400 186.670,122.400 187.000 C 122.400 187.366,122.773 187.600,123.357 187.600 C 123.884 187.600,124.418 187.870,124.545 188.200 C 124.671 188.530,125.231 188.800,125.787 188.800 C 126.421 188.800,126.800 188.575,126.800 188.200 C 126.800 187.834,127.173 187.600,127.753 187.600 C 128.910 187.600,129.187 186.773,129.195 183.300 C 129.198 181.904,129.377 180.800,129.600 180.800 C 129.820 180.800,130.000 179.810,130.000 178.600 C 130.000 176.911,130.139 176.400,130.600 176.400 C 131.061 176.400,131.200 175.889,131.200 174.200 C 131.200 172.511,131.061 172.000,130.600 172.000 C 130.222 172.000,130.000 171.619,130.000 170.968 C 130.000 170.282,129.409 169.345,128.232 168.168 C 127.055 166.991,126.118 166.400,125.432 166.400 C 124.781 166.400,124.400 166.178,124.400 165.800 C 124.400 165.324,123.822 165.200,121.600 165.200 C 119.378 165.200,118.800 165.324,118.800 165.800 M254.145 174.600 C 253.979 175.031,253.306 175.200,251.757 175.200 C 250.106 175.200,249.600 175.341,249.600 175.800 C 249.600 176.233,249.156 176.400,248.000 176.400 C 246.844 176.400,246.400 176.567,246.400 177.000 C 246.400 177.400,246.000 177.600,245.200 177.600 C 244.540 177.600,244.000 177.777,244.000 177.992 C 244.000 178.208,243.505 178.506,242.900 178.655 C 242.295 178.803,241.404 179.346,240.919 179.862 C 240.435 180.378,239.670 180.800,239.219 180.800 C 238.758 180.800,238.400 181.062,238.400 181.400 C 238.400 181.730,238.130 182.000,237.800 182.000 C 237.470 182.000,237.200 182.270,237.200 182.600 C 237.200 182.930,236.930 183.200,236.600 183.200 C 236.262 183.200,236.000 183.558,236.000 184.019 C 236.000 184.470,235.550 185.255,235.000 185.765 C 233.961 186.728,233.476 190.800,234.400 190.800 C 234.620 190.800,234.800 191.070,234.800 191.400 C 234.800 191.730,235.070 192.000,235.400 192.000 C 235.730 192.000,236.000 192.270,236.000 192.600 C 236.000 192.930,236.270 193.200,236.600 193.200 C 236.930 193.200,237.200 193.470,237.200 193.800 C 237.200 194.200,237.600 194.400,238.400 194.400 C 239.200 194.400,239.600 194.600,239.600 195.000 C 239.600 196.008,244.421 195.835,245.311 194.795 C 245.690 194.353,246.000 193.813,246.000 193.595 C 246.000 193.378,246.270 193.200,246.600 193.200 C 246.930 193.200,247.200 192.930,247.200 192.600 C 247.200 192.270,247.470 192.000,247.800 192.000 C 248.173 192.000,248.400 191.622,248.400 191.000 C 248.400 190.378,248.627 190.000,249.000 190.000 C 249.330 190.000,249.600 189.730,249.600 189.400 C 249.600 189.070,249.870 188.800,250.200 188.800 C 250.530 188.800,250.800 188.530,250.800 188.200 C 250.800 187.870,251.070 187.600,251.400 187.600 C 251.730 187.600,252.000 187.330,252.000 187.000 C 252.000 186.670,252.180 186.400,252.400 186.400 C 252.620 186.400,252.800 186.130,252.800 185.800 C 252.800 185.418,253.184 185.200,253.854 185.200 C 254.465 185.200,255.298 184.779,255.835 184.200 C 256.345 183.650,257.130 183.200,257.581 183.200 C 258.042 183.200,258.400 182.938,258.400 182.600 C 258.400 182.156,258.867 182.000,260.200 182.000 L 262.000 182.000 262.000 184.800 C 262.000 187.022,261.876 187.600,261.400 187.600 C 260.924 187.600,260.800 188.178,260.800 190.400 C 260.800 192.622,260.676 193.200,260.200 193.200 C 259.724 193.200,259.600 193.778,259.600 196.000 L 259.600 198.800 254.000 198.800 C 249.289 198.800,248.400 198.895,248.400 199.400 C 248.400 199.886,247.756 200.000,245.000 200.000 C 242.244 200.000,241.600 200.114,241.600 200.600 C 241.600 201.061,241.089 201.200,239.400 201.200 C 237.711 201.200,237.200 201.339,237.200 201.800 C 237.200 202.200,236.800 202.400,236.000 202.400 C 235.340 202.400,234.800 202.577,234.800 202.792 C 234.800 203.008,234.350 203.298,233.800 203.436 C 233.250 203.574,232.800 203.847,232.800 204.043 C 232.800 204.240,232.530 204.400,232.200 204.400 C 231.870 204.400,231.600 204.658,231.600 204.973 C 231.600 205.302,231.130 205.601,230.500 205.673 C 229.636 205.773,229.373 206.036,229.273 206.900 C 229.142 208.038,228.000 208.487,228.000 207.400 C 228.000 206.392,223.179 206.565,222.289 207.605 C 221.910 208.047,221.600 208.587,221.600 208.805 C 221.600 209.022,221.330 209.200,221.000 209.200 C 220.670 209.200,220.400 209.380,220.400 209.600 C 220.400 209.820,220.046 210.000,219.614 210.000 C 219.181 210.000,218.275 210.540,217.600 211.200 C 216.925 211.860,216.199 212.400,215.986 212.400 C 215.774 212.400,215.600 212.670,215.600 213.000 C 215.600 213.373,215.222 213.600,214.600 213.600 C 213.978 213.600,213.600 213.827,213.600 214.200 C 213.600 214.530,213.330 214.800,213.000 214.800 C 212.670 214.800,212.400 214.980,212.400 215.200 C 212.400 215.420,211.944 215.600,211.387 215.600 C 210.831 215.600,210.271 215.870,210.145 216.200 C 210.018 216.530,209.484 216.800,208.957 216.800 C 208.373 216.800,208.000 217.034,208.000 217.400 C 208.000 217.800,207.600 218.000,206.800 218.000 C 206.000 218.000,205.600 218.200,205.600 218.600 C 205.600 218.973,205.222 219.200,204.600 219.200 C 203.978 219.200,203.600 219.427,203.600 219.800 C 203.600 220.200,203.200 220.400,202.400 220.400 C 201.600 220.400,201.200 220.600,201.200 221.000 C 201.200 221.432,200.758 221.600,199.624 221.600 C 198.757 221.600,197.936 221.780,197.800 222.000 C 197.664 222.220,196.843 222.400,195.976 222.400 C 194.842 222.400,194.400 222.568,194.400 223.000 C 194.400 223.444,193.933 223.600,192.600 223.600 L 190.800 223.600 190.800 220.800 C 190.800 218.578,190.924 218.000,191.400 218.000 C 191.861 218.000,192.000 217.489,192.000 215.800 C 192.000 214.111,192.139 213.600,192.600 213.600 C 193.044 213.600,193.200 213.133,193.200 211.800 C 193.200 210.467,193.356 210.000,193.800 210.000 C 194.166 210.000,194.400 209.627,194.400 209.043 C 194.400 208.516,194.670 207.982,195.000 207.855 C 195.330 207.729,195.600 207.189,195.600 206.655 C 195.600 206.122,195.870 205.582,196.200 205.455 C 196.530 205.329,196.800 204.769,196.800 204.213 C 196.800 203.656,196.980 203.200,197.200 203.200 C 197.420 203.200,197.600 202.750,197.600 202.200 C 197.600 201.578,197.827 201.200,198.200 201.200 C 198.600 201.200,198.800 200.800,198.800 200.000 C 198.800 199.200,199.000 198.800,199.400 198.800 C 199.730 198.800,200.000 198.530,200.000 198.200 C 200.000 197.870,200.270 197.600,200.600 197.600 C 200.938 197.600,201.200 197.242,201.200 196.781 C 201.200 196.330,201.650 195.545,202.200 195.035 C 202.750 194.525,203.200 193.904,203.200 193.654 C 203.200 193.404,203.470 193.200,203.800 193.200 C 204.130 193.200,204.400 192.930,204.400 192.600 C 204.400 192.270,204.670 192.000,205.000 192.000 C 205.486 192.000,205.600 192.644,205.600 195.400 C 205.600 198.156,205.714 198.800,206.200 198.800 C 206.530 198.800,206.800 199.070,206.800 199.400 C 206.800 199.730,207.070 200.000,207.400 200.000 C 207.730 200.000,208.000 200.270,208.000 200.600 C 208.000 201.084,208.624 201.200,211.213 201.200 C 213.699 201.200,214.477 201.064,214.655 200.600 C 214.782 200.270,215.316 200.000,215.843 200.000 C 216.427 200.000,216.800 199.766,216.800 199.400 C 216.800 199.070,217.070 198.800,217.400 198.800 C 217.730 198.800,218.000 198.530,218.000 198.200 C 218.000 197.870,218.270 197.600,218.600 197.600 C 219.076 197.600,219.200 197.022,219.200 194.800 C 219.200 192.578,219.324 192.000,219.800 192.000 C 220.173 192.000,220.400 191.622,220.400 191.000 C 220.400 190.378,220.173 190.000,219.800 190.000 C 219.324 190.000,219.200 189.422,219.200 187.200 C 219.200 184.978,219.076 184.400,218.600 184.400 C 218.200 184.400,218.000 184.000,218.000 183.200 C 218.000 182.400,217.800 182.000,217.400 182.000 C 217.070 182.000,216.800 181.730,216.800 181.400 C 216.800 180.893,215.865 180.800,210.787 180.800 C 205.812 180.800,204.735 180.903,204.545 181.400 C 204.418 181.730,203.884 182.000,203.357 182.000 C 202.773 182.000,202.400 182.234,202.400 182.600 C 202.400 183.000,202.000 183.200,201.200 183.200 C 200.400 183.200,200.000 183.400,200.000 183.800 C 200.000 184.152,199.628 184.405,199.100 184.413 C 198.068 184.427,196.800 185.272,196.800 185.944 C 196.800 186.195,196.344 186.400,195.787 186.400 C 195.231 186.400,194.671 186.670,194.545 187.000 C 194.418 187.330,194.064 187.600,193.757 187.600 C 193.451 187.600,193.200 187.870,193.200 188.200 C 193.200 188.530,192.930 188.800,192.600 188.800 C 192.270 188.800,192.000 189.040,192.000 189.332 C 192.000 189.625,191.550 190.106,191.000 190.400 C 190.450 190.694,190.000 191.175,190.000 191.468 C 190.000 191.760,189.730 192.000,189.400 192.000 C 189.070 192.000,188.800 192.270,188.800 192.600 C 188.800 192.930,188.530 193.200,188.200 193.200 C 187.870 193.200,187.600 193.470,187.600 193.800 C 187.600 194.130,187.330 194.400,187.000 194.400 C 186.670 194.400,186.400 194.670,186.400 195.000 C 186.400 195.330,186.130 195.600,185.800 195.600 C 185.470 195.600,185.200 195.870,185.200 196.200 C 185.200 196.530,185.020 196.800,184.800 196.800 C 184.580 196.800,184.400 197.250,184.400 197.800 C 184.400 198.422,184.173 198.800,183.800 198.800 C 183.328 198.800,183.200 198.243,183.200 196.187 C 183.200 194.234,183.049 193.517,182.600 193.345 C 182.209 193.195,182.000 192.572,182.000 191.557 C 182.000 190.440,181.831 190.000,181.400 190.000 C 181.000 190.000,180.800 189.600,180.800 188.800 C 180.800 188.000,180.600 187.600,180.200 187.600 C 179.870 187.600,179.600 187.330,179.600 187.000 C 179.600 186.670,179.330 186.400,179.000 186.400 C 178.670 186.400,178.400 186.207,178.400 185.971 C 178.400 185.418,177.382 184.400,176.829 184.400 C 176.593 184.400,176.400 184.130,176.400 183.800 C 176.400 183.470,176.130 183.200,175.800 183.200 C 175.470 183.200,175.200 182.930,175.200 182.600 C 175.200 182.200,174.800 182.000,174.000 182.000 C 173.200 182.000,172.800 181.800,172.800 181.400 C 172.800 180.895,171.911 180.800,167.200 180.800 C 162.489 180.800,161.600 180.895,161.600 181.400 C 161.600 181.833,161.156 182.000,160.000 182.000 C 158.844 182.000,158.400 182.167,158.400 182.600 C 158.400 182.930,158.130 183.200,157.800 183.200 C 157.470 183.200,157.200 183.470,157.200 183.800 C 157.200 184.164,156.828 184.400,156.256 184.400 C 155.716 184.400,154.991 184.828,154.561 185.400 C 154.148 185.950,153.583 186.400,153.305 186.400 C 153.027 186.400,152.800 186.670,152.800 187.000 C 152.800 187.330,152.530 187.600,152.200 187.600 C 151.870 187.600,151.600 187.870,151.600 188.200 C 151.600 188.530,151.330 188.800,151.000 188.800 C 150.670 188.800,150.400 188.974,150.400 189.186 C 150.400 189.399,149.860 190.125,149.200 190.800 C 148.540 191.475,148.000 192.291,148.000 192.614 C 148.000 192.936,147.820 193.200,147.600 193.200 C 147.355 193.200,147.200 191.267,147.200 188.200 C 147.200 184.022,147.101 183.200,146.600 183.200 C 146.270 183.200,146.000 182.930,146.000 182.600 C 146.000 182.114,145.356 182.000,142.600 182.000 C 139.844 182.000,139.200 182.114,139.200 182.600 C 139.200 183.000,138.800 183.200,138.000 183.200 C 137.200 183.200,136.800 183.400,136.800 183.800 C 136.800 184.173,136.422 184.400,135.800 184.400 C 135.250 184.400,134.800 184.580,134.800 184.800 C 134.800 185.020,134.530 185.200,134.200 185.200 C 133.870 185.200,133.600 185.451,133.600 185.757 C 133.600 186.064,133.330 186.418,133.000 186.545 C 132.551 186.717,132.400 187.434,132.400 189.387 C 132.400 191.443,132.272 192.000,131.800 192.000 C 131.303 192.000,131.200 192.759,131.200 196.429 C 131.200 199.832,131.061 200.996,130.600 201.457 C 130.156 201.901,130.000 202.987,130.000 205.629 C 130.000 207.743,129.837 209.200,129.600 209.200 C 129.367 209.200,129.200 210.519,129.200 212.357 C 129.200 214.795,129.063 215.567,128.600 215.745 C 128.136 215.923,128.000 216.701,128.000 219.187 C 128.000 221.776,127.884 222.400,127.400 222.400 C 126.914 222.400,126.800 223.040,126.800 225.757 C 126.800 228.372,126.667 229.165,126.200 229.345 C 125.737 229.523,125.600 230.296,125.600 232.745 C 125.600 235.193,125.463 235.967,125.000 236.145 C 124.525 236.327,124.400 237.163,124.400 240.145 C 124.400 243.211,124.282 243.960,123.768 244.157 C 121.621 244.981,123.599 256.400,125.889 256.400 C 126.432 256.400,126.800 256.642,126.800 257.000 C 126.800 257.476,127.378 257.600,129.600 257.600 L 132.400 257.600 132.400 255.200 C 132.400 253.333,132.533 252.800,133.000 252.800 C 133.486 252.800,133.600 252.156,133.600 249.400 C 133.600 246.644,133.714 246.000,134.200 246.000 C 134.676 246.000,134.800 245.422,134.800 243.200 C 134.800 241.600,134.971 240.400,135.200 240.400 C 135.420 240.400,135.600 239.410,135.600 238.200 C 135.600 236.511,135.739 236.000,136.200 236.000 C 136.661 236.000,136.800 235.489,136.800 233.800 C 136.800 232.111,136.939 231.600,137.400 231.600 C 137.844 231.600,138.000 231.133,138.000 229.800 C 138.000 228.067,138.044 228.000,139.200 228.000 C 140.000 228.000,140.400 228.200,140.400 228.600 C 140.400 229.108,141.356 229.200,146.600 229.200 C 151.844 229.200,152.800 229.108,152.800 228.600 C 152.800 228.167,153.244 228.000,154.400 228.000 C 155.280 228.000,156.000 227.820,156.000 227.600 C 156.000 227.380,156.527 227.200,157.171 227.200 C 157.816 227.200,158.613 226.930,158.943 226.600 C 159.273 226.270,160.006 226.000,160.571 226.000 C 161.219 226.000,161.600 225.778,161.600 225.400 C 161.600 225.025,161.979 224.800,162.613 224.800 C 163.169 224.800,163.729 224.530,163.855 224.200 C 163.982 223.870,164.336 223.600,164.643 223.600 C 164.949 223.600,165.200 223.330,165.200 223.000 C 165.200 222.654,165.562 222.400,166.054 222.400 C 166.524 222.400,167.325 221.950,167.835 221.400 C 168.345 220.850,168.950 220.400,169.181 220.400 C 169.411 220.400,169.600 220.130,169.600 219.800 C 169.600 219.470,169.870 219.200,170.200 219.200 C 170.530 219.200,170.800 218.930,170.800 218.600 C 170.800 218.270,171.070 218.000,171.400 218.000 C 171.730 218.000,172.000 217.730,172.000 217.400 C 172.000 217.070,172.180 216.800,172.400 216.800 C 172.620 216.800,172.800 216.530,172.800 216.200 C 172.800 215.870,172.989 215.600,173.220 215.600 C 173.999 215.600,176.400 212.926,176.400 212.060 C 176.400 211.562,176.653 211.200,177.000 211.200 C 177.330 211.200,177.600 210.930,177.600 210.600 C 177.600 210.270,177.780 210.000,178.000 210.000 C 178.220 210.000,178.400 209.550,178.400 209.000 C 178.400 208.378,178.627 208.000,179.000 208.000 C 179.724 208.000,179.806 209.065,179.100 209.299 C 178.270 209.575,178.153 221.296,178.972 222.115 C 179.317 222.460,179.600 223.206,179.600 223.771 C 179.600 224.419,179.822 224.800,180.200 224.800 C 180.530 224.800,180.800 225.070,180.800 225.400 C 180.800 225.730,181.070 226.000,181.400 226.000 C 181.730 226.000,182.000 226.270,182.000 226.600 C 182.000 226.930,182.270 227.200,182.600 227.200 C 182.930 227.200,183.200 227.380,183.200 227.600 C 183.200 227.820,183.470 228.000,183.800 228.000 C 184.130 228.000,184.400 228.270,184.400 228.600 C 184.400 228.930,184.580 229.200,184.800 229.200 C 185.020 229.200,185.200 229.470,185.200 229.800 C 185.200 230.130,185.451 230.400,185.757 230.400 C 186.064 230.400,186.418 230.670,186.545 231.000 C 186.671 231.330,187.231 231.600,187.787 231.600 C 188.421 231.600,188.800 231.825,188.800 232.200 C 188.800 232.631,189.240 232.800,190.357 232.800 C 191.412 232.800,191.993 233.005,192.159 233.436 C 192.475 234.260,200.824 234.132,201.100 233.300 C 201.192 233.025,201.887 232.800,202.646 232.800 C 203.503 232.800,204.112 232.573,204.255 232.200 C 204.382 231.870,204.922 231.600,205.455 231.600 C 205.989 231.600,206.529 231.330,206.655 231.000 C 206.782 230.670,207.136 230.400,207.443 230.400 C 207.749 230.400,208.000 230.130,208.000 229.800 C 208.000 229.427,208.378 229.200,209.000 229.200 C 209.622 229.200,210.000 228.973,210.000 228.600 C 210.000 228.270,210.270 228.000,210.600 228.000 C 210.930 228.000,211.200 227.820,211.200 227.600 C 211.200 227.380,211.587 227.200,212.060 227.200 C 212.926 227.200,215.600 224.799,215.600 224.020 C 215.600 223.789,215.870 223.600,216.200 223.600 C 216.530 223.600,216.800 223.330,216.800 223.000 C 216.800 222.670,217.070 222.400,217.400 222.400 C 217.730 222.400,218.000 222.220,218.000 222.000 C 218.000 221.780,218.270 221.600,218.600 221.600 C 218.930 221.600,219.200 221.330,219.200 221.000 C 219.200 220.670,219.470 220.400,219.800 220.400 C 220.130 220.400,220.400 220.130,220.400 219.800 C 220.400 219.470,220.670 219.200,221.000 219.200 C 221.330 219.200,221.600 218.930,221.600 218.600 C 221.600 218.270,221.780 218.000,222.000 218.000 C 222.220 218.000,222.400 217.730,222.400 217.400 C 222.400 217.070,222.670 216.800,223.000 216.800 C 223.330 216.800,223.600 216.530,223.600 216.200 C 223.600 215.870,223.870 215.600,224.200 215.600 C 224.573 215.600,224.800 215.222,224.800 214.600 C 224.800 213.978,225.027 213.600,225.400 213.600 C 225.730 213.600,226.000 213.349,226.000 213.043 C 226.000 212.736,226.270 212.382,226.600 212.255 C 227.078 212.072,227.200 212.388,227.200 213.813 C 227.200 214.796,227.380 215.600,227.600 215.600 C 227.820 215.600,228.000 216.056,228.000 216.613 C 228.000 217.169,228.270 217.729,228.600 217.855 C 228.930 217.982,229.200 218.453,229.200 218.902 C 229.200 220.058,231.731 222.400,232.980 222.400 C 233.541 222.400,234.000 222.578,234.000 222.795 C 234.000 223.790,235.434 224.800,236.846 224.800 C 237.782 224.800,238.398 225.017,238.545 225.400 C 238.721 225.860,239.480 226.000,241.800 226.000 C 244.120 226.000,244.879 225.860,245.055 225.400 C 245.217 224.979,245.873 224.800,247.255 224.800 C 248.637 224.800,249.294 224.621,249.455 224.200 C 249.582 223.870,249.936 223.600,250.243 223.600 C 250.549 223.600,250.800 223.330,250.800 223.000 C 250.800 222.567,251.244 222.400,252.400 222.400 L 254.000 222.400 254.000 224.013 C 254.000 225.077,254.204 225.703,254.600 225.855 C 254.930 225.982,255.200 226.336,255.200 226.643 C 255.200 226.949,255.470 227.200,255.800 227.200 C 256.130 227.200,256.400 227.380,256.400 227.600 C 256.400 227.820,256.670 228.000,257.000 228.000 C 257.330 228.000,257.600 228.270,257.600 228.600 C 257.600 229.086,258.244 229.200,261.000 229.200 C 263.756 229.200,264.400 229.086,264.400 228.600 C 264.400 228.270,264.580 228.000,264.800 228.000 C 265.020 228.000,265.200 227.010,265.200 225.800 C 265.200 224.111,265.339 223.600,265.800 223.600 C 266.261 223.600,266.400 223.089,266.400 221.400 C 266.400 219.711,266.539 219.200,267.000 219.200 C 267.459 219.200,267.600 218.694,267.600 217.043 C 267.600 215.494,267.769 214.821,268.200 214.655 C 268.592 214.505,268.800 213.882,268.800 212.855 C 268.800 211.829,269.008 211.206,269.400 211.055 C 269.823 210.893,270.000 210.232,270.000 208.813 C 270.000 207.706,270.180 206.800,270.400 206.800 C 270.620 206.800,270.800 205.810,270.800 204.600 C 270.800 202.911,270.939 202.400,271.400 202.400 C 271.880 202.400,272.000 201.800,272.000 199.400 C 272.000 197.000,272.120 196.400,272.600 196.400 C 273.101 196.400,273.200 195.578,273.200 191.400 C 273.200 187.222,273.101 186.400,272.600 186.400 C 272.139 186.400,272.000 185.889,272.000 184.200 C 272.000 182.511,271.861 182.000,271.400 182.000 C 271.070 182.000,270.800 181.730,270.800 181.400 C 270.800 181.070,270.620 180.800,270.400 180.800 C 270.180 180.800,270.000 180.350,270.000 179.800 C 270.000 179.178,269.773 178.800,269.400 178.800 C 269.070 178.800,268.800 178.530,268.800 178.200 C 268.800 177.870,268.530 177.600,268.200 177.600 C 267.870 177.600,267.600 177.330,267.600 177.000 C 267.600 176.600,267.200 176.400,266.400 176.400 C 265.600 176.400,265.200 176.200,265.200 175.800 C 265.200 175.367,264.756 175.200,263.600 175.200 C 262.444 175.200,262.000 175.033,262.000 174.600 C 262.000 174.109,261.310 174.000,258.187 174.000 C 255.168 174.000,254.327 174.125,254.145 174.600 M97.600 175.800 C 97.600 176.130,97.330 176.400,97.000 176.400 C 96.670 176.400,96.400 176.670,96.400 177.000 C 96.400 177.371,96.024 177.600,95.414 177.600 C 94.433 177.600,92.000 179.586,92.000 180.387 C 92.000 180.614,91.730 180.800,91.400 180.800 C 91.070 180.800,90.800 181.070,90.800 181.400 C 90.800 181.730,90.530 182.000,90.200 182.000 C 89.870 182.000,89.600 182.270,89.600 182.600 C 89.600 182.930,89.330 183.200,89.000 183.200 C 88.670 183.200,88.400 183.451,88.400 183.757 C 88.400 184.064,88.130 184.418,87.800 184.545 C 87.470 184.671,87.200 185.141,87.200 185.587 C 87.200 186.034,87.020 186.400,86.800 186.400 C 86.580 186.400,86.400 186.670,86.400 187.000 C 86.400 187.330,86.130 187.600,85.800 187.600 C 85.324 187.600,85.200 187.022,85.200 184.800 C 85.200 182.578,85.076 182.000,84.600 182.000 C 84.270 182.000,84.000 181.730,84.000 181.400 C 84.000 180.907,83.289 180.800,80.000 180.800 C 76.711 180.800,76.000 180.907,76.000 181.400 C 76.000 181.773,75.622 182.000,75.000 182.000 C 74.378 182.000,74.000 182.227,74.000 182.600 C 74.000 182.930,73.730 183.200,73.400 183.200 C 73.070 183.200,72.800 183.470,72.800 183.800 C 72.800 184.130,72.622 184.400,72.405 184.400 C 72.187 184.400,71.647 184.710,71.205 185.089 C 70.119 186.018,69.924 214.242,71.000 214.655 C 71.495 214.845,71.600 215.894,71.600 220.643 C 71.600 226.520,72.002 228.000,73.600 228.000 C 73.820 228.000,74.000 228.270,74.000 228.600 C 74.000 229.091,74.689 229.200,77.800 229.200 L 81.600 229.200 81.600 223.600 C 81.600 218.889,81.695 218.000,82.200 218.000 C 82.659 218.000,82.800 217.494,82.800 215.843 C 82.800 214.294,82.969 213.621,83.400 213.455 C 83.821 213.294,84.000 212.637,84.000 211.255 C 84.000 209.873,84.179 209.217,84.600 209.055 C 84.930 208.929,85.200 208.369,85.200 207.813 C 85.200 207.256,85.380 206.800,85.600 206.800 C 85.820 206.800,86.000 205.990,86.000 205.000 C 86.000 203.667,86.156 203.200,86.600 203.200 C 86.973 203.200,87.200 202.822,87.200 202.200 C 87.200 201.578,87.427 201.200,87.800 201.200 C 88.200 201.200,88.400 200.800,88.400 200.000 C 88.400 199.200,88.600 198.800,89.000 198.800 C 89.366 198.800,89.600 198.427,89.600 197.843 C 89.600 197.316,89.870 196.782,90.200 196.655 C 90.530 196.529,90.800 195.969,90.800 195.413 C 90.800 194.779,91.025 194.400,91.400 194.400 C 91.730 194.400,92.000 194.130,92.000 193.800 C 92.000 193.470,92.180 193.200,92.400 193.200 C 92.620 193.200,92.800 192.930,92.800 192.600 C 92.800 192.270,93.070 192.000,93.400 192.000 C 93.773 192.000,94.000 191.622,94.000 191.000 C 94.000 190.378,94.227 190.000,94.600 190.000 C 94.966 190.000,95.200 190.373,95.200 190.957 C 95.200 191.484,94.930 192.018,94.600 192.145 C 94.204 192.297,94.000 192.923,94.000 193.987 C 94.000 195.154,93.834 195.600,93.400 195.600 C 92.939 195.600,92.800 196.111,92.800 197.800 C 92.800 199.414,92.948 200.000,93.357 200.000 C 93.664 200.000,94.018 200.270,94.145 200.600 C 94.332 201.087,95.280 201.200,99.200 201.200 C 103.120 201.200,104.068 201.087,104.255 200.600 C 104.382 200.270,104.916 200.000,105.443 200.000 C 106.027 200.000,106.400 199.766,106.400 199.400 C 106.400 199.070,106.670 198.800,107.000 198.800 C 107.366 198.800,107.600 198.427,107.600 197.843 C 107.600 197.316,107.870 196.782,108.200 196.655 C 108.530 196.529,108.800 195.989,108.800 195.455 C 108.800 194.922,109.070 194.382,109.400 194.255 C 109.924 194.054,110.000 195.344,110.000 204.413 C 110.000 213.379,109.918 214.800,109.400 214.800 C 108.967 214.800,108.800 215.244,108.800 216.400 C 108.800 217.556,108.967 218.000,109.400 218.000 C 109.886 218.000,110.000 218.644,110.000 221.400 C 110.000 223.270,110.160 224.800,110.357 224.800 C 110.553 224.800,110.835 225.284,110.983 225.875 C 111.306 227.162,112.269 227.970,113.500 227.987 C 114.028 227.995,114.400 228.248,114.400 228.600 C 114.400 229.061,114.911 229.200,116.600 229.200 C 118.289 229.200,118.800 229.061,118.800 228.600 C 118.800 228.270,119.070 228.000,119.400 228.000 C 119.897 228.000,120.000 227.249,120.000 223.643 C 120.000 220.139,120.117 219.241,120.600 219.055 C 121.047 218.884,121.200 218.171,121.200 216.255 C 121.200 214.340,121.353 213.627,121.800 213.455 C 122.233 213.289,122.400 212.610,122.400 211.013 C 122.400 209.796,122.580 208.800,122.800 208.800 C 123.048 208.800,123.200 206.667,123.200 203.200 C 123.200 199.733,123.048 197.600,122.800 197.600 C 122.580 197.600,122.400 197.358,122.400 197.062 C 122.400 196.146,120.621 194.400,119.687 194.400 C 119.165 194.400,118.800 194.153,118.800 193.800 C 118.800 193.434,118.427 193.200,117.843 193.200 C 117.316 193.200,116.782 192.930,116.655 192.600 C 116.484 192.153,115.771 192.000,113.855 192.000 C 111.940 192.000,111.227 192.153,111.055 192.600 C 110.334 194.480,110.000 192.767,110.000 187.187 C 110.000 182.212,109.897 181.135,109.400 180.945 C 109.070 180.818,108.800 180.284,108.800 179.757 C 108.800 179.173,108.566 178.800,108.200 178.800 C 107.870 178.800,107.600 178.530,107.600 178.200 C 107.600 177.870,107.330 177.600,107.000 177.600 C 106.670 177.600,106.400 177.330,106.400 177.000 C 106.400 176.670,106.130 176.400,105.800 176.400 C 105.470 176.400,105.200 176.130,105.200 175.800 C 105.200 175.309,104.511 175.200,101.400 175.200 C 98.289 175.200,97.600 175.309,97.600 175.800 M303.600 175.800 C 303.600 176.173,303.222 176.400,302.600 176.400 C 301.978 176.400,301.600 176.627,301.600 177.000 C 301.600 177.330,301.396 177.600,301.146 177.600 C 300.896 177.600,300.275 178.050,299.765 178.600 C 299.255 179.150,298.650 179.600,298.419 179.600 C 298.189 179.600,298.000 179.870,298.000 180.200 C 298.000 180.530,297.730 180.800,297.400 180.800 C 297.070 180.800,296.800 181.070,296.800 181.400 C 296.800 181.730,296.530 182.000,296.200 182.000 C 295.870 182.000,295.600 182.270,295.600 182.600 C 295.600 182.930,295.420 183.200,295.200 183.200 C 294.980 183.200,294.800 183.470,294.800 183.800 C 294.800 184.130,294.622 184.400,294.405 184.400 C 293.623 184.400,292.400 185.796,292.400 186.689 C 292.400 187.232,292.158 187.600,291.800 187.600 C 291.324 187.600,291.200 187.022,291.200 184.800 C 291.200 182.578,291.076 182.000,290.600 182.000 C 290.270 182.000,290.000 181.730,290.000 181.400 C 290.000 180.909,289.311 180.800,286.200 180.800 C 283.089 180.800,282.400 180.909,282.400 181.400 C 282.400 181.800,282.000 182.000,281.200 182.000 C 280.400 182.000,280.000 182.200,280.000 182.600 C 280.000 182.933,279.644 183.200,279.200 183.200 C 277.937 183.200,276.800 184.622,276.800 186.200 C 276.800 187.178,276.619 187.600,276.200 187.600 C 275.686 187.600,275.600 188.800,275.600 196.000 C 275.600 203.200,275.686 204.400,276.200 204.400 C 276.718 204.400,276.800 205.800,276.800 214.600 C 276.800 221.133,276.944 224.800,277.200 224.800 C 277.420 224.800,277.600 225.210,277.600 225.711 C 277.600 226.604,278.823 228.000,279.605 228.000 C 279.822 228.000,280.000 228.270,280.000 228.600 C 280.000 229.000,280.400 229.200,281.200 229.200 C 282.000 229.200,282.400 229.400,282.400 229.800 C 282.400 230.233,282.844 230.400,284.000 230.400 C 285.156 230.400,285.600 230.233,285.600 229.800 C 285.600 229.470,285.870 229.200,286.200 229.200 C 286.691 229.200,286.800 228.516,286.800 225.443 C 286.800 222.472,286.926 221.637,287.400 221.455 C 287.863 221.277,288.000 220.504,288.000 218.055 C 288.000 215.607,288.137 214.833,288.600 214.655 C 288.996 214.503,289.200 213.877,289.200 212.813 C 289.200 211.926,289.380 211.200,289.600 211.200 C 289.820 211.200,290.000 210.480,290.000 209.600 C 290.000 208.444,290.167 208.000,290.600 208.000 C 291.044 208.000,291.200 207.533,291.200 206.200 C 291.200 204.867,291.356 204.400,291.800 204.400 C 292.166 204.400,292.400 204.027,292.400 203.443 C 292.400 202.916,292.670 202.382,293.000 202.255 C 293.330 202.129,293.600 201.589,293.600 201.055 C 293.600 200.522,293.870 199.982,294.200 199.855 C 294.530 199.729,294.800 199.169,294.800 198.613 C 294.800 198.056,294.980 197.600,295.200 197.600 C 295.420 197.600,295.600 197.150,295.600 196.600 C 295.600 195.978,295.827 195.600,296.200 195.600 C 296.530 195.600,296.800 195.349,296.800 195.043 C 296.800 194.736,297.070 194.382,297.400 194.255 C 297.730 194.129,298.000 193.569,298.000 193.013 C 298.000 192.379,298.225 192.000,298.600 192.000 C 298.930 192.000,299.200 191.730,299.200 191.400 C 299.200 191.070,299.393 190.800,299.629 190.800 C 299.864 190.800,300.351 190.506,300.711 190.146 C 301.202 189.656,301.406 189.619,301.534 190.002 C 301.627 190.281,301.410 190.674,301.052 190.875 C 300.693 191.076,300.400 191.662,300.400 192.177 C 300.400 192.693,300.130 193.218,299.800 193.345 C 299.336 193.523,299.200 194.301,299.200 196.787 C 299.200 199.376,299.316 200.000,299.800 200.000 C 300.130 200.000,300.400 200.270,300.400 200.600 C 300.400 201.101,301.222 201.200,305.400 201.200 C 309.578 201.200,310.400 201.101,310.400 200.600 C 310.400 200.270,310.670 200.000,311.000 200.000 C 311.330 200.000,311.600 199.730,311.600 199.400 C 311.600 199.070,311.870 198.800,312.200 198.800 C 312.530 198.800,312.800 198.530,312.800 198.200 C 312.800 197.870,313.070 197.600,313.400 197.600 C 313.773 197.600,314.000 197.222,314.000 196.600 C 314.000 196.050,314.180 195.600,314.400 195.600 C 314.620 195.600,314.800 194.790,314.800 193.800 C 314.800 192.467,314.956 192.000,315.400 192.000 C 315.897 192.000,316.000 191.244,316.000 187.600 C 316.000 183.956,315.897 183.200,315.400 183.200 C 314.956 183.200,314.800 182.733,314.800 181.400 C 314.800 180.410,314.620 179.600,314.400 179.600 C 314.180 179.600,314.000 179.234,314.000 178.787 C 314.000 178.341,313.730 177.871,313.400 177.745 C 313.070 177.618,312.800 177.264,312.800 176.957 C 312.800 176.651,312.549 176.400,312.243 176.400 C 311.936 176.400,311.582 176.130,311.455 175.800 C 311.273 175.325,310.432 175.200,307.413 175.200 C 304.290 175.200,303.600 175.309,303.600 175.800 M374.800 189.400 C 374.800 189.730,374.530 190.000,374.200 190.000 C 373.767 190.000,373.600 190.444,373.600 191.600 C 373.600 192.756,373.433 193.200,373.000 193.200 C 372.600 193.200,372.400 193.600,372.400 194.400 C 372.400 195.200,372.200 195.600,371.800 195.600 C 371.462 195.600,371.200 195.958,371.200 196.419 C 371.200 196.870,370.750 197.655,370.200 198.165 C 369.621 198.702,369.200 199.535,369.200 200.146 C 369.200 200.816,368.982 201.200,368.600 201.200 C 368.270 201.200,368.000 201.470,368.000 201.800 C 368.000 202.130,367.730 202.400,367.400 202.400 C 367.070 202.400,366.800 202.670,366.800 203.000 C 366.800 203.330,366.606 203.600,366.369 203.600 C 365.809 203.600,363.600 205.809,363.600 206.369 C 363.600 206.606,363.330 206.800,363.000 206.800 C 362.670 206.800,362.400 207.070,362.400 207.400 C 362.400 207.730,362.130 208.000,361.800 208.000 C 361.422 208.000,361.200 207.619,361.200 206.971 C 361.200 206.406,361.470 205.673,361.800 205.343 C 362.130 205.013,362.400 204.216,362.400 203.571 C 362.400 202.927,362.580 202.400,362.800 202.400 C 363.020 202.400,363.200 201.860,363.200 201.200 C 363.200 200.400,363.400 200.000,363.800 200.000 C 364.200 200.000,364.400 199.600,364.400 198.800 C 364.400 198.000,364.600 197.600,365.000 197.600 C 365.373 197.600,365.600 197.222,365.600 196.600 C 365.600 195.978,365.827 195.600,366.200 195.600 C 366.530 195.600,366.800 195.330,366.800 195.000 C 366.800 194.670,367.070 194.400,367.400 194.400 C 367.730 194.400,368.000 194.130,368.000 193.800 C 368.000 193.470,368.180 193.200,368.400 193.200 C 368.620 193.200,368.800 192.930,368.800 192.600 C 368.800 192.270,369.070 192.000,369.400 192.000 C 369.730 192.000,370.000 191.730,370.000 191.400 C 370.000 191.070,370.270 190.800,370.600 190.800 C 370.930 190.800,371.200 190.620,371.200 190.400 C 371.200 190.180,371.470 190.000,371.800 190.000 C 372.130 190.000,372.400 189.730,372.400 189.400 C 372.400 189.000,372.800 188.800,373.600 188.800 C 374.400 188.800,374.800 189.000,374.800 189.400 M166.629 190.571 C 167.250 191.192,167.418 193.200,166.850 193.200 C 166.657 193.200,166.414 194.226,166.310 195.480 C 166.206 196.734,165.914 197.829,165.660 197.913 C 165.407 197.998,165.200 198.772,165.200 199.633 C 165.200 200.759,165.031 201.200,164.600 201.200 C 164.167 201.200,164.000 201.644,164.000 202.800 C 164.000 203.956,163.833 204.400,163.400 204.400 C 163.000 204.400,162.800 204.800,162.800 205.600 C 162.800 206.400,162.600 206.800,162.200 206.800 C 161.800 206.800,161.600 207.200,161.600 208.000 C 161.600 208.660,161.407 209.200,161.171 209.200 C 160.638 209.200,159.600 210.210,159.600 210.729 C 159.600 210.941,159.330 211.218,159.000 211.345 C 158.670 211.471,158.400 212.031,158.400 212.587 C 158.400 213.221,158.175 213.600,157.800 213.600 C 157.470 213.600,157.200 213.870,157.200 214.200 C 157.200 214.530,157.006 214.800,156.769 214.800 C 156.209 214.800,154.000 217.009,154.000 217.569 C 154.000 217.806,153.460 218.000,152.800 218.000 C 152.000 218.000,151.600 218.200,151.600 218.600 C 151.600 218.930,151.330 219.200,151.000 219.200 C 150.670 219.200,150.400 219.470,150.400 219.800 C 150.400 220.200,150.000 220.400,149.200 220.400 C 148.400 220.400,148.000 220.600,148.000 221.000 C 148.000 221.483,147.378 221.600,144.800 221.600 C 142.222 221.600,141.600 221.483,141.600 221.000 C 141.600 220.670,141.780 220.400,142.000 220.400 C 142.220 220.400,142.400 219.860,142.400 219.200 C 142.400 218.400,142.600 218.000,143.000 218.000 C 143.400 218.000,143.600 217.600,143.600 216.800 C 143.600 216.000,143.800 215.600,144.200 215.600 C 144.566 215.600,144.800 215.227,144.800 214.643 C 144.800 214.116,145.070 213.582,145.400 213.455 C 145.730 213.329,146.000 212.769,146.000 212.213 C 146.000 211.579,146.225 211.200,146.600 211.200 C 146.973 211.200,147.200 210.822,147.200 210.200 C 147.200 209.650,147.380 209.200,147.600 209.200 C 147.820 209.200,148.000 208.949,148.000 208.643 C 148.000 208.336,148.270 207.982,148.600 207.855 C 148.930 207.729,149.200 207.169,149.200 206.613 C 149.200 205.979,149.425 205.600,149.800 205.600 C 150.200 205.600,150.400 205.200,150.400 204.400 C 150.400 203.740,150.594 203.200,150.831 203.200 C 151.550 203.200,153.542 200.971,153.823 199.851 C 153.968 199.273,154.247 198.800,154.443 198.800 C 154.640 198.800,154.800 198.530,154.800 198.200 C 154.800 197.870,155.070 197.600,155.400 197.600 C 155.730 197.600,156.000 197.330,156.000 197.000 C 156.000 196.670,156.194 196.400,156.431 196.400 C 156.668 196.400,157.388 195.874,158.031 195.231 C 158.674 194.588,159.200 193.868,159.200 193.631 C 159.200 193.394,159.470 193.200,159.800 193.200 C 160.130 193.200,160.400 192.930,160.400 192.600 C 160.400 192.270,160.670 192.000,161.000 192.000 C 161.330 192.000,161.600 191.730,161.600 191.400 C 161.600 191.000,162.000 190.800,162.800 190.800 C 163.460 190.800,164.000 190.620,164.000 190.400 C 164.000 189.793,165.979 189.922,166.629 190.571 M256.400 207.400 C 256.400 207.730,256.130 208.000,255.800 208.000 C 255.427 208.000,255.200 208.378,255.200 209.000 C 255.200 209.622,254.973 210.000,254.600 210.000 C 254.270 210.000,254.000 210.189,254.000 210.419 C 254.000 210.650,253.550 211.255,253.000 211.765 C 252.421 212.302,252.000 213.135,252.000 213.746 C 252.000 214.609,251.815 214.800,250.981 214.800 C 250.408 214.800,249.556 215.238,249.035 215.800 C 248.525 216.350,247.904 216.800,247.654 216.800 C 247.404 216.800,247.200 217.070,247.200 217.400 C 247.200 218.374,243.416 218.216,242.400 217.200 C 241.450 216.250,241.369 215.600,242.200 215.600 C 242.573 215.600,242.800 215.222,242.800 214.600 C 242.800 213.978,243.027 213.600,243.400 213.600 C 243.730 213.600,244.000 213.330,244.000 213.000 C 244.000 212.670,244.270 212.400,244.600 212.400 C 244.930 212.400,245.200 212.130,245.200 211.800 C 245.200 211.470,245.380 211.200,245.600 211.200 C 245.820 211.200,246.000 210.930,246.000 210.600 C 246.000 210.200,246.400 210.000,247.200 210.000 C 247.860 210.000,248.400 209.820,248.400 209.600 C 248.400 209.380,248.670 209.200,249.000 209.200 C 249.330 209.200,249.600 208.930,249.600 208.600 C 249.600 208.180,250.024 208.000,251.013 208.000 C 251.899 208.000,252.511 207.777,252.655 207.400 C 252.812 206.993,253.450 206.800,254.643 206.800 C 255.938 206.800,256.400 206.958,256.400 207.400 M315.701 252.705 C 310.905 253.242,311.202 259.085,316.306 264.594 C 318.914 267.410,319.254 268.374,318.177 269.911 C 317.117 271.425,315.200 270.582,315.200 268.601 C 315.200 267.626,314.397 267.216,313.100 267.526 C 311.943 267.803,312.153 270.846,313.436 272.369 C 314.389 273.502,314.668 273.599,316.936 273.587 C 322.519 273.558,323.868 267.820,319.356 263.290 C 315.258 259.175,314.697 258.096,315.823 256.489 C 316.812 255.076,319.200 255.831,319.200 257.557 C 319.200 258.613,321.791 257.888,321.905 256.800 C 322.152 254.437,318.974 252.339,315.701 252.705 M293.467 253.067 C 293.320 253.213,293.200 254.347,293.200 255.587 C 293.200 256.826,293.032 258.011,292.827 258.220 C 292.622 258.429,292.251 260.220,292.002 262.200 C 291.752 264.180,291.386 267.060,291.187 268.600 C 290.528 273.711,290.500 273.388,291.611 273.518 C 292.477 273.619,292.711 273.389,293.248 271.918 C 294.092 269.602,297.426 269.247,298.120 271.400 C 298.685 273.151,299.160 273.600,300.449 273.600 C 301.697 273.600,302.079 272.035,301.206 270.495 C 300.843 269.853,300.558 268.074,299.622 260.600 C 299.429 259.060,299.075 257.293,298.835 256.674 C 298.596 256.055,298.400 254.930,298.400 254.174 L 298.400 252.800 296.067 252.800 C 294.783 252.800,293.613 252.920,293.467 253.067 M333.693 263.095 C 333.795 272.910,333.836 273.396,334.574 273.538 C 336.208 273.853,336.400 272.760,336.400 263.156 C 336.400 252.946,336.377 252.800,334.750 252.800 L 333.586 252.800 333.693 263.095 M350.300 255.725 C 349.915 257.330,349.596 259.264,349.590 260.022 C 349.585 260.780,349.393 262.120,349.163 263.000 C 348.932 263.880,348.581 265.860,348.381 267.400 C 348.181 268.940,347.905 270.965,347.767 271.900 C 347.410 274.317,349.777 274.595,350.228 272.189 C 350.702 269.666,355.200 268.922,355.200 271.366 C 355.200 272.810,356.096 273.685,357.420 273.534 C 358.214 273.444,358.557 273.206,358.469 272.807 C 358.397 272.480,358.242 270.950,358.125 269.407 C 358.009 267.863,357.663 265.829,357.357 264.886 C 357.050 263.943,356.800 262.109,356.800 260.810 C 356.800 259.510,356.641 258.349,356.447 258.229 C 356.253 258.109,355.969 256.839,355.815 255.406 L 355.536 252.800 353.268 252.802 L 351.000 252.805 350.300 255.725 M296.830 259.490 C 296.990 260.541,297.309 262.442,297.541 263.715 C 298.141 267.009,297.608 267.725,294.900 267.261 C 293.530 267.026,293.791 262.144,295.436 257.233 C 295.773 256.230,296.520 257.439,296.830 259.490 M354.000 259.230 C 354.000 260.320,354.295 262.274,354.656 263.572 C 355.441 266.396,355.271 267.006,353.602 267.340 C 351.228 267.814,350.912 267.297,351.273 263.527 C 351.837 257.648,354.000 254.238,354.000 259.230 M276.400 272.200 C 276.400 273.533,276.467 273.600,277.800 273.600 C 279.133 273.600,279.200 273.533,279.200 272.200 C 279.200 270.867,279.133 270.800,277.800 270.800 C 276.467 270.800,276.400 270.867,276.400 272.200 " stroke="none" fill="#fcfbfb" fill-rule="evenodd"></path><path id="path2" d="M295.105 252.283 C 295.602 252.379,296.322 252.375,296.705 252.275 C 297.087 252.175,296.680 252.096,295.800 252.101 C 294.920 252.105,294.607 252.187,295.105 252.283 M352.500 252.276 C 352.885 252.376,353.515 252.376,353.900 252.276 C 354.285 252.175,353.970 252.093,353.200 252.093 C 352.430 252.093,352.115 252.175,352.500 252.276 M292.956 252.971 C 292.835 253.285,292.804 253.960,292.886 254.471 C 292.995 255.154,293.088 255.004,293.237 253.900 C 293.447 252.347,293.336 251.981,292.956 252.971 M313.170 253.500 L 312.200 254.600 313.400 253.600 C 314.060 253.050,314.675 252.555,314.767 252.500 C 314.858 252.445,314.755 252.400,314.536 252.400 C 314.318 252.400,313.703 252.895,313.170 253.500 M332.980 252.907 C 332.436 254.325,333.009 273.736,333.600 273.897 C 334.058 274.022,334.078 273.975,333.687 273.699 C 333.286 273.416,333.198 271.035,333.287 262.868 C 333.398 252.609,333.375 251.878,332.980 252.907 M321.968 256.900 C 321.849 257.760,321.910 258.250,322.112 258.048 C 322.305 257.855,322.398 257.181,322.319 256.549 C 322.187 255.491,322.159 255.519,321.968 256.900 M299.693 260.000 C 299.693 260.770,299.775 261.085,299.876 260.700 C 299.976 260.315,299.976 259.685,299.876 259.300 C 299.775 258.915,299.693 259.230,299.693 260.000 M353.701 260.600 C 353.705 261.480,353.787 261.793,353.883 261.295 C 353.979 260.798,353.975 260.078,353.875 259.695 C 353.775 259.313,353.696 259.720,353.701 260.600 M318.611 262.012 C 319.925 263.448,321.228 264.978,321.506 265.412 C 321.784 265.845,321.753 265.660,321.437 265.000 C 321.120 264.340,319.818 262.810,318.542 261.600 L 316.223 259.400 318.611 262.012 M291.693 262.000 C 291.693 262.770,291.775 263.085,291.876 262.700 C 291.976 262.315,291.976 261.685,291.876 261.300 C 291.775 260.915,291.693 261.230,291.693 262.000 M294.846 261.267 C 294.821 261.634,294.696 262.264,294.570 262.667 C 294.352 263.362,294.363 263.363,294.797 262.687 C 295.048 262.296,295.173 261.666,295.073 261.287 C 294.911 260.668,294.888 260.666,294.846 261.267 M315.415 264.412 C 316.727 265.849,317.882 266.967,317.981 266.898 C 318.081 266.828,317.008 265.652,315.597 264.285 L 313.031 261.800 315.415 264.412 M357.206 263.033 C 357.209 263.455,357.395 264.070,357.618 264.400 C 357.915 264.838,357.952 264.676,357.756 263.800 C 357.427 262.329,357.198 262.010,357.206 263.033 M354.262 265.000 C 354.396 265.880,354.572 266.675,354.653 266.767 C 354.956 267.110,354.729 264.968,354.381 264.200 C 354.129 263.642,354.093 263.885,354.262 265.000 M294.100 265.697 C 294.170 266.604,294.413 267.012,294.908 267.056 C 295.358 267.096,295.403 267.052,295.031 266.934 C 294.710 266.833,294.346 266.222,294.223 265.575 C 294.010 264.454,294.005 264.460,294.100 265.697 M297.246 265.671 C 297.218 266.328,296.929 266.812,296.500 266.924 C 295.844 267.096,295.845 267.110,296.513 267.154 C 297.324 267.206,297.756 266.389,297.480 265.323 C 297.354 264.837,297.278 264.951,297.246 265.671 M348.101 266.200 C 348.105 267.080,348.187 267.393,348.283 266.895 C 348.379 266.398,348.375 265.678,348.275 265.295 C 348.175 264.913,348.096 265.320,348.101 266.200 M322.128 268.800 C 322.128 270.230,322.201 270.815,322.289 270.100 C 322.378 269.385,322.378 268.215,322.289 267.500 C 322.201 266.785,322.128 267.370,322.128 268.800 M347.429 269.429 C 347.281 270.015,347.238 270.572,347.332 270.666 C 347.427 270.760,347.624 270.358,347.771 269.771 C 347.919 269.185,347.962 268.628,347.868 268.534 C 347.773 268.440,347.576 268.842,347.429 269.429 M279.180 272.110 C 279.375 273.758,279.383 273.767,279.519 272.449 C 279.596 271.706,279.506 270.946,279.320 270.760 C 279.133 270.573,279.071 271.181,279.180 272.110 " stroke="none" fill="#f4bcb4" fill-rule="evenodd"></path><path id="path3" d="M314.898 251.835 C 313.453 252.467,312.000 253.768,312.000 254.431 C 312.000 254.668,312.447 254.330,312.993 253.681 C 315.410 250.808,320.537 251.668,321.996 255.191 C 323.330 258.410,320.797 260.026,318.544 257.393 L 317.180 255.800 316.398 256.735 C 315.392 257.937,315.883 258.973,318.801 261.800 C 324.945 267.755,323.085 275.313,315.746 274.213 C 313.239 273.837,312.000 272.227,312.000 269.346 L 312.000 267.154 313.697 267.277 C 315.025 267.373,315.425 267.574,315.538 268.200 C 315.776 269.517,316.828 270.474,317.461 269.950 C 318.671 268.945,318.086 267.221,315.666 264.665 C 314.383 263.309,313.033 261.755,312.666 261.211 C 312.218 260.546,312.000 260.426,312.000 260.846 C 312.000 261.190,313.260 262.764,314.800 264.344 C 316.703 266.297,317.600 267.527,317.600 268.185 C 317.600 270.016,316.321 269.807,315.854 267.900 C 315.611 266.906,315.414 266.800,313.816 266.800 C 309.040 266.800,311.755 274.962,316.600 275.170 C 323.492 275.465,325.009 267.560,319.189 261.686 C 316.795 259.269,315.927 257.540,316.828 256.983 C 317.137 256.792,317.709 257.151,318.361 257.943 C 320.240 260.230,322.800 259.456,322.800 256.600 C 322.800 254.592,320.859 252.000,319.354 252.000 C 318.855 252.000,318.336 251.820,318.200 251.600 C 317.861 251.052,316.460 251.152,314.898 251.835 M293.700 252.012 C 292.281 252.583,292.649 252.729,294.355 252.274 C 297.756 251.366,298.815 252.325,299.575 257.000 L 299.900 259.000 299.950 257.149 C 300.068 252.772,297.356 250.543,293.700 252.012 M333.100 252.032 C 332.461 252.404,332.400 253.376,332.400 263.230 L 332.400 274.020 333.498 274.437 C 334.340 274.757,334.900 274.710,335.898 274.234 L 337.200 273.613 337.200 262.997 L 337.200 252.380 336.174 251.990 C 334.884 251.500,333.993 251.512,333.100 252.032 M351.321 252.005 C 350.135 252.482,349.190 254.427,349.244 256.280 L 349.288 257.800 349.611 256.200 C 350.226 253.150,350.662 252.462,352.160 252.181 C 355.560 251.543,356.286 252.744,357.185 260.493 C 357.383 262.194,357.662 263.777,357.806 264.010 C 357.950 264.243,358.240 265.821,358.451 267.517 C 358.661 269.213,358.934 271.365,359.057 272.300 L 359.281 274.000 357.460 274.000 C 356.148 274.000,355.526 273.804,355.232 273.300 C 354.863 272.666,354.823 272.663,354.812 273.269 C 354.795 274.231,357.164 274.946,358.581 274.407 C 359.611 274.015,359.664 273.878,359.461 272.095 C 359.031 268.319,358.422 264.193,358.032 262.416 C 357.813 261.417,357.457 259.430,357.240 258.000 C 356.456 252.824,356.263 252.254,355.196 251.957 C 353.807 251.570,352.355 251.588,351.321 252.005 M335.774 252.390 L 336.800 252.780 336.800 262.941 C 336.800 274.156,336.798 274.165,334.326 273.927 L 333.000 273.800 332.893 263.400 C 332.771 251.509,332.833 251.272,335.774 252.390 M292.070 255.687 C 291.812 256.714,291.625 258.330,291.654 259.277 C 291.684 260.225,291.775 260.550,291.856 260.000 C 291.937 259.450,292.205 258.079,292.452 256.953 C 293.029 254.329,292.693 253.215,292.070 255.687 M311.378 256.579 C 311.235 257.337,311.303 258.462,311.528 259.079 C 311.886 260.060,311.941 259.887,311.968 257.700 C 312.003 254.924,311.771 254.482,311.378 256.579 M295.443 259.400 C 295.289 260.280,295.069 261.450,294.954 262.000 C 294.426 264.507,294.364 265.866,294.826 264.800 C 295.065 264.250,295.404 262.720,295.579 261.400 C 295.891 259.057,295.900 259.043,295.966 260.800 C 296.043 262.851,297.114 267.513,297.166 266.024 C 297.201 265.033,296.575 261.186,296.023 259.000 L 295.721 257.800 295.443 259.400 M348.664 259.800 C 348.498 260.680,348.295 262.210,348.212 263.200 C 348.129 264.190,348.140 264.550,348.237 264.000 C 348.334 263.450,348.607 262.360,348.845 261.579 C 349.082 260.797,349.206 259.717,349.121 259.179 C 348.996 258.391,348.906 258.513,348.664 259.800 M352.365 260.500 C 351.518 263.061,351.603 266.961,352.508 267.050 C 352.999 267.097,353.030 267.061,352.608 266.930 C 352.187 266.799,352.000 266.210,352.000 265.017 C 352.000 263.187,352.867 260.601,353.327 261.060 C 353.477 261.210,353.600 260.763,353.600 260.067 C 353.600 258.291,353.030 258.491,352.365 260.500 M300.200 260.600 C 300.714 264.998,301.201 268.138,301.578 269.496 C 301.808 270.323,301.997 271.675,301.998 272.500 L 302.000 274.000 300.268 274.000 C 298.470 274.000,297.830 273.395,297.515 271.400 C 297.280 269.910,294.334 270.280,293.927 271.850 C 293.496 273.512,292.729 274.081,291.126 273.927 C 289.680 273.789,289.674 273.765,290.160 270.400 C 290.327 269.237,290.295 268.883,290.069 269.400 C 288.952 271.948,289.197 274.252,290.600 274.405 C 292.831 274.648,294.400 273.572,294.400 271.800 C 294.400 270.924,294.573 270.800,295.800 270.800 C 297.081 270.800,297.200 270.899,297.200 271.971 C 297.200 273.300,298.015 274.288,299.396 274.635 C 302.077 275.308,302.725 274.207,302.050 270.124 C 301.767 268.406,301.385 265.740,301.201 264.200 C 301.018 262.660,300.676 260.860,300.440 260.200 C 300.029 259.046,300.019 259.061,300.200 260.600 M290.864 263.144 C 290.609 263.996,290.427 265.572,290.460 266.646 C 290.496 267.807,290.576 268.113,290.659 267.400 C 290.735 266.740,291.008 265.254,291.263 264.098 C 291.815 261.608,291.529 260.925,290.864 263.144 M353.671 264.304 C 353.742 265.675,353.948 266.798,354.129 266.799 C 354.450 266.800,354.075 262.392,353.721 262.005 C 353.623 261.897,353.601 262.932,353.671 264.304 M347.294 267.846 C 346.613 270.117,346.653 273.780,347.366 274.371 C 348.048 274.938,350.496 274.415,350.643 273.672 C 350.696 273.401,350.649 273.365,350.537 273.590 C 350.425 273.816,349.628 274.000,348.767 274.000 L 347.200 274.000 347.200 272.060 C 347.200 270.993,347.395 269.561,347.633 268.878 C 347.871 268.195,348.003 267.313,347.927 266.918 C 347.841 266.473,347.600 266.826,347.294 267.846 M276.106 270.326 C 273.731 271.835,276.272 275.592,278.967 274.557 C 280.172 274.095,279.592 273.795,277.775 273.939 L 275.950 274.085 276.075 272.342 L 276.200 270.600 277.800 270.600 C 279.315 270.600,279.413 270.675,279.647 272.000 C 279.893 273.389,279.895 273.391,279.947 272.180 C 280.030 270.276,277.845 269.222,276.106 270.326 M351.214 271.174 C 350.691 272.152,350.685 272.800,351.200 272.800 C 351.420 272.800,351.600 272.350,351.600 271.800 C 351.600 270.410,353.837 270.330,354.388 271.700 C 354.745 272.590,354.750 272.591,354.775 271.743 C 354.818 270.275,351.941 269.815,351.214 271.174 " stroke="none" fill="#f49c94" fill-rule="evenodd"></path><path id="path4" d="M315.600 252.380 C 314.880 252.601,315.265 252.688,316.980 252.690 C 319.243 252.693,319.426 252.770,320.718 254.247 C 321.988 255.698,322.031 255.717,321.371 254.531 C 320.325 252.653,317.787 251.707,315.600 252.380 M293.462 252.700 C 293.360 252.865,294.114 252.946,295.138 252.880 C 298.059 252.693,298.414 252.497,295.924 252.446 C 294.672 252.421,293.564 252.535,293.462 252.700 M333.467 252.667 C 333.320 252.813,333.200 257.580,333.200 263.259 L 333.200 273.585 334.267 273.853 C 336.569 274.430,336.801 273.439,336.794 263.056 C 336.791 257.965,336.656 253.592,336.494 253.337 C 336.332 253.082,336.254 257.172,336.320 262.426 C 336.448 272.618,336.280 273.753,334.673 273.524 C 333.805 273.401,333.799 273.344,333.693 263.127 L 333.587 252.854 334.693 252.687 C 335.798 252.520,335.798 252.520,334.767 252.460 C 334.198 252.427,333.613 252.520,333.467 252.667 M352.505 252.687 C 353.114 252.779,354.014 252.777,354.505 252.682 C 354.997 252.587,354.500 252.511,353.400 252.514 C 352.300 252.517,351.897 252.595,352.505 252.687 M313.201 253.798 C 312.686 254.348,312.352 254.885,312.460 254.994 C 312.568 255.102,313.054 254.652,313.540 253.995 C 314.617 252.539,314.466 252.452,313.201 253.798 M355.693 254.000 C 355.693 254.770,355.775 255.085,355.876 254.700 C 355.976 254.315,355.976 253.685,355.876 253.300 C 355.775 252.915,355.693 253.230,355.693 254.000 M350.031 255.231 C 349.747 256.340,349.603 257.336,349.712 257.445 C 349.821 257.554,350.130 256.724,350.400 255.600 C 350.670 254.476,350.813 253.480,350.719 253.386 C 350.625 253.291,350.315 254.122,350.031 255.231 M298.454 254.400 C 298.431 254.950,298.667 256.210,298.979 257.200 C 299.684 259.437,299.706 258.112,299.009 255.400 C 298.681 254.123,298.480 253.762,298.454 254.400 M292.688 256.500 C 292.530 257.325,292.322 258.675,292.227 259.500 C 292.132 260.325,292.139 260.550,292.244 260.000 C 292.348 259.450,292.621 258.624,292.849 258.165 C 293.078 257.706,293.200 256.806,293.121 256.165 C 292.981 255.043,292.965 255.056,292.688 256.500 M312.114 257.400 C 312.117 258.500,312.195 258.903,312.287 258.295 C 312.379 257.686,312.377 256.786,312.282 256.295 C 312.187 255.803,312.111 256.300,312.114 257.400 M315.765 256.597 C 315.091 257.626,315.253 259.600,316.011 259.600 C 316.242 259.600,316.205 259.276,315.923 258.825 C 315.538 258.209,315.551 257.838,315.987 257.025 C 316.652 255.782,317.624 255.705,318.331 256.839 C 318.620 257.300,318.962 257.571,319.092 257.441 C 319.477 257.056,317.939 255.600,317.147 255.600 C 316.746 255.600,316.124 256.049,315.765 256.597 M356.028 257.076 C 356.013 257.558,356.180 258.064,356.400 258.200 C 356.873 258.492,356.873 258.101,356.400 257.000 C 356.069 256.229,356.055 256.231,356.028 257.076 M295.489 257.044 C 295.330 257.203,295.203 257.618,295.206 257.967 C 295.211 258.505,295.267 258.513,295.579 258.021 C 295.954 257.428,295.950 257.421,296.538 260.200 C 296.631 260.640,296.728 260.359,296.754 259.576 C 296.801 258.118,296.007 256.527,295.489 257.044 M353.021 257.111 C 352.543 257.586,351.598 260.048,351.625 260.749 C 351.652 261.429,351.643 261.445,352.817 258.600 L 353.312 257.400 353.616 258.400 L 353.920 259.400 353.960 258.324 C 354.001 257.212,353.531 256.604,353.021 257.111 M320.400 258.000 L 319.000 258.295 320.276 258.347 C 320.978 258.376,321.664 258.220,321.800 258.000 C 321.936 257.780,321.992 257.624,321.924 257.653 C 321.856 257.682,321.170 257.838,320.400 258.000 M294.500 260.859 C 294.225 262.050,294.015 263.378,294.033 263.812 C 294.052 264.245,294.327 263.524,294.645 262.208 C 294.963 260.892,295.173 259.564,295.112 259.256 C 295.050 258.948,294.775 259.669,294.500 260.859 M349.246 260.440 C 349.221 261.012,349.005 262.039,348.767 262.722 C 348.529 263.405,348.407 264.287,348.495 264.682 C 348.584 265.077,348.882 264.364,349.157 263.098 C 349.432 261.831,349.576 260.481,349.475 260.098 C 349.357 259.646,349.276 259.767,349.246 260.440 M356.920 261.600 C 356.920 262.810,356.995 263.305,357.087 262.700 C 357.178 262.095,357.178 261.105,357.087 260.500 C 356.995 259.895,356.920 260.390,356.920 261.600 M312.424 260.281 C 312.411 260.546,313.345 261.732,314.500 262.917 C 316.316 264.780,316.384 264.821,315.000 263.214 C 314.120 262.192,313.186 261.006,312.924 260.578 C 312.661 260.150,312.436 260.017,312.424 260.281 M317.425 261.272 C 319.162 263.152,320.487 264.400,320.745 264.400 C 320.870 264.400,319.995 263.410,318.800 262.200 C 316.465 259.835,315.490 259.177,317.425 261.272 M296.875 261.800 C 296.886 262.240,297.032 263.140,297.200 263.800 L 297.505 265.000 297.525 263.800 C 297.535 263.140,297.389 262.240,297.200 261.800 L 296.856 261.000 296.875 261.800 M299.612 262.000 C 299.612 262.550,299.787 263.270,300.000 263.600 C 300.307 264.075,300.388 263.992,300.388 263.200 C 300.388 262.650,300.213 261.930,300.000 261.600 C 299.693 261.125,299.612 261.208,299.612 262.000 M351.320 264.000 C 351.320 265.210,351.395 265.705,351.487 265.100 C 351.578 264.495,351.578 263.505,351.487 262.900 C 351.395 262.295,351.320 262.790,351.320 264.000 M354.040 262.294 C 354.018 262.566,354.220 263.611,354.489 264.616 C 354.902 266.160,354.886 266.507,354.389 266.852 C 353.874 267.209,353.875 267.241,354.400 267.099 C 355.235 266.874,355.318 265.712,354.649 263.600 C 354.335 262.610,354.061 262.022,354.040 262.294 M291.222 265.200 C 290.949 266.410,290.804 268.030,290.899 268.800 C 291.053 270.047,291.079 269.999,291.136 268.360 C 291.171 267.348,291.396 265.956,291.636 265.268 C 291.876 264.580,291.992 263.788,291.895 263.509 C 291.797 263.229,291.494 263.990,291.222 265.200 M357.212 264.400 C 357.212 264.730,357.387 265.270,357.600 265.600 C 357.945 266.133,357.988 266.133,357.988 265.600 C 357.988 265.270,357.813 264.730,357.600 264.400 C 357.255 263.867,357.212 263.867,357.212 264.400 M300.509 266.000 C 300.509 266.990,300.587 267.395,300.682 266.900 C 300.778 266.405,300.778 265.595,300.682 265.100 C 300.587 264.605,300.509 265.010,300.509 266.000 M320.800 265.047 C 320.800 265.267,321.064 265.796,321.387 266.224 C 321.710 266.651,321.975 266.820,321.975 266.600 C 321.975 266.380,321.710 265.851,321.387 265.424 C 321.064 264.996,320.800 264.827,320.800 265.047 M318.231 267.880 C 318.685 270.204,316.473 271.244,315.616 269.109 C 315.357 268.465,315.243 268.395,315.225 268.871 C 315.195 269.673,316.236 270.800,317.006 270.800 C 318.241 270.800,319.412 267.626,318.406 267.004 C 318.166 266.855,318.097 267.196,318.231 267.880 M358.227 269.837 C 358.299 271.178,358.413 272.518,358.479 272.815 C 358.551 273.135,358.111 273.468,357.400 273.630 C 356.309 273.880,356.291 273.909,357.200 273.947 C 359.016 274.021,359.382 273.493,358.868 271.538 C 358.617 270.582,358.340 269.260,358.253 268.600 C 358.166 267.940,358.154 268.497,358.227 269.837 M347.661 269.850 C 346.974 272.975,347.125 273.789,348.403 273.839 C 349.276 273.872,349.288 273.857,348.500 273.712 C 347.493 273.527,347.249 271.804,348.025 270.354 C 348.258 269.918,348.393 269.074,348.325 268.480 C 348.235 267.700,348.050 268.080,347.661 269.850 M312.101 269.400 C 312.105 270.280,312.187 270.593,312.283 270.095 C 312.379 269.598,312.375 268.878,312.275 268.495 C 312.175 268.113,312.096 268.520,312.101 269.400 M300.800 269.310 C 300.800 269.883,300.987 270.468,301.216 270.610 C 301.489 270.779,301.538 270.477,301.360 269.734 C 300.992 268.201,300.800 268.056,300.800 269.310 M293.405 271.449 C 292.651 273.255,292.653 273.628,293.413 272.624 C 293.736 272.196,294.000 271.521,294.000 271.124 C 294.000 269.422,297.406 270.174,297.952 271.996 C 298.644 274.307,301.725 274.937,301.866 272.796 C 301.927 271.869,301.918 271.864,301.735 272.723 C 301.573 273.481,301.318 273.624,300.309 273.523 C 299.050 273.397,298.689 273.017,298.010 271.100 C 297.348 269.233,294.233 269.469,293.405 271.449 M352.305 270.283 C 352.802 270.379,353.522 270.375,353.905 270.275 C 354.287 270.175,353.880 270.096,353.000 270.101 C 352.120 270.105,351.807 270.187,352.305 270.283 M290.215 271.858 C 289.919 273.437,290.356 274.015,291.800 273.954 C 292.443 273.927,292.403 273.865,291.600 273.638 C 290.730 273.392,290.617 273.164,290.731 271.878 C 290.900 269.978,290.571 269.966,290.215 271.858 M276.152 272.200 C 276.199 273.767,276.231 273.801,277.703 273.842 C 279.189 273.883,279.191 273.882,277.826 273.719 C 276.570 273.569,276.430 273.421,276.275 272.077 L 276.105 270.600 276.152 272.200 M321.167 271.666 C 320.356 273.188,319.533 273.572,317.000 273.613 C 315.089 273.643,314.790 273.727,315.533 274.025 C 316.046 274.230,316.856 274.320,317.333 274.224 C 317.810 274.129,318.683 273.948,319.273 273.824 C 320.303 273.607,322.314 271.381,321.876 270.943 C 321.760 270.827,321.441 271.152,321.167 271.666 M312.413 271.478 C 312.432 271.921,313.983 273.751,314.176 273.557 C 314.262 273.470,313.897 272.895,313.366 272.278 C 312.835 271.660,312.406 271.300,312.413 271.478 " stroke="none" fill="#fcccc4" fill-rule="evenodd"></path></g></svg>